{
.appVersion = "895";
copyright = "Copyright 2016 Jeremy Tribby. SIL OFL License v1.1.";
date = "2016-07-12 00:27:02 +0000";
designer = "Jeremy Tribby";
designerURL = "http://tribby.com/";
familyName = Barlow;
featurePrefixes = (
{
automatic = 1;
code = "languagesystem DFLT dflt;\012";
name = Languagesystems;
}
);
features = (
{
automatic = 1;
code = "sub hyphen hyphen by hyphen_hyphen.liga;\012";
name = liga;
}
);
fontMaster = (
{
alignmentZones = (
"{800, 16}",
"{700, 10}",
"{500, 6}",
"{0, -10}",
"{-200, -12}"
);
ascender = 800;
capHeight = 700;
customParameters = (
{
name = paramArea;
value = "400";
},
{
name = paramDepth;
value = "10";
},
{
name = paramOver;
value = "0";
}
);
descender = -200;
horizontalStems = (
23,
22
);
id = "262880E7-CFE1-4BDA-902E-E24798F3240A";
userData = {
GSCornerRadius = 8;
GSOffsetHorizontal = 11;
GSOffsetMakeStroke = 1;
GSOffsetVertical = 10;
noodleExtremesAndInflections = 1;
noodleRemoveOverlap = 1;
noodleThickness = "22.0";
};
verticalStems = (
22,
21
);
weight = Light;
weightValue = 23;
xHeight = 500;
},
{
alignmentZones = (
"{800, 16}",
"{700, 11}",
"{500, 9}",
"{0, -11}",
"{-200, -10}"
);
ascender = 800;
capHeight = 700;
customParameters = (
{
name = paramArea;
value = "210";
},
{
name = paramDepth;
value = "12";
},
{
name = paramOver;
value = "1";
}
);
descender = -200;
horizontalStems = (
198,
208
);
id = "4F25946F-63AC-42D6-8D55-01CF6A99025B";
userData = {
GSCornerRadius = 12;
GSOffsetHorizontal = 104;
GSOffsetMakeStroke = 1;
GSOffsetVertical = 102;
noodleExtremesAndInflections = 1;
noodleRemoveOverlap = 1;
noodleThickness = "50.0";
};
verticalStems = (
202,
168
);
visible = 1;
weight = Bold;
weightValue = 202;
xHeight = 500;
}
);
glyphs = (
{
color = 1;
glyphname = A;
lastChange = "2016-10-15 09:40:23 +0000";
layers = (
{
layerId = "262880E7-CFE1-4BDA-902E-E24798F3240A";
paths = (
{
closed = 1;
nodes = (
"80 0 LINE",
"234 656 LINE",
"388 0 LINE",
"410 0 LINE",
"245 700 LINE",
"223 700 LINE",
"58 0 LINE"
);
},
{
closed = 1;
nodes = (
"357 145 LINE",
"357 166 LINE",
"110 166 LINE",
"110 145 LINE"
);
}
);
width = 468;
},
{
layerId = "4F25946F-63AC-42D6-8D55-01CF6A99025B";
paths = (
{
closed = 1;
nodes = (
"230 0 LINE",
"285 426 LINE",
"340 0 LINE",
"566 0 LINE",
"401 700 LINE",
"169 700 LINE",
"4 0 LINE"
);
},
{
closed = 1;
nodes = (
"435 79 LINE",
"435 214 LINE",
"135 214 LINE",
"135 79 LINE"
);
}
);
width = 570;
},
{
associatedMasterId = "262880E7-CFE1-4BDA-902E-E24798F3240A";
layerId = "09B97E43-C149-48A2-81D6-63259EF6020F";
name = "DemiBold{119,100}";
paths = (
{
closed = 1;
nodes = (
"153 0 LINE",
"254 527 LINE",
"355 0 LINE",
"486 0 LINE",
"321 700 LINE",
"187 700 LINE",
"22 0 LINE"
);
},
{
closed = 1;
nodes = (
"391 101 LINE",
"391 212 LINE",
"116 212 LINE",
"116 101 LINE"
);
}
);
width = 508;
}
);
unicode = 0041;
},
{
color = 1;
glyphname = B;
lastChange = "2016-10-15 09:40:23 +0000";
layers = (
{
layerId = "262880E7-CFE1-4BDA-902E-E24798F3240A";
paths = (
{
closed = 1;
nodes = (
"246 351 LINE SMOOTH",
"361 351 OFFCURVE",
"432 415 OFFCURVE",
"432 523 CURVE SMOOTH",
"432 631 OFFCURVE",
"361 700 OFFCURVE",
"246 700 CURVE SMOOTH",
"100 700 LINE",
"100 351 LINE"
);
},
{
closed = 1;
nodes = (
"246 0 LINE SMOOTH",
"361 0 OFFCURVE",
"432 71 OFFCURVE",
"432 186 CURVE SMOOTH",
"432 301 OFFCURVE",
"361 372 OFFCURVE",
"246 372 CURVE SMOOTH",
"100 372 LINE",
"100 0 LINE"
);
},
{
closed = 1;
nodes = (
"122 351 LINE",
"246 351 LINE SMOOTH",
"348 351 OFFCURVE",
"410 288 OFFCURVE",
"410 186 CURVE SMOOTH",
"410 84 OFFCURVE",
"348 22 OFFCURVE",
"246 22 CURVE SMOOTH",
"122 22 LINE"
);
},
{
closed = 1;
nodes = (
"122 679 LINE",
"246 679 LINE SMOOTH",
"348 679 OFFCURVE",
"410 618 OFFCURVE",
"410 523 CURVE SMOOTH",
"410 428 OFFCURVE",
"348 372 OFFCURVE",
"246 372 CURVE SMOOTH",
"122 372 LINE"
);
}
);
width = 509;
},
{
layerId = "4F25946F-63AC-42D6-8D55-01CF6A99025B";
paths = (
{
closed = 1;
nodes = (
"306 308 LINE SMOOTH",
"452 308 OFFCURVE",
"550 386 OFFCURVE",
"550 502 CURVE SMOOTH",
"550 621 OFFCURVE",
"450 700 OFFCURVE",
"301 700 CURVE SMOOTH",
"53 700 LINE",
"53 308 LINE"
);
},
{
closed = 1;
nodes = (
"330 0 LINE SMOOTH",
"475 0 OFFCURVE",
"571 82 OFFCURVE",
"571 205 CURVE SMOOTH",
"571 338 OFFCURVE",
"465 426 OFFCURVE",
"305 426 CURVE",
"53 426 LINE",
"53 0 LINE"
);
},
{
closed = 1;
nodes = (
"246 286 LINE",
"306 286 LINE SMOOTH",
"337 286 OFFCURVE",
"357 266 OFFCURVE",
"357 235 CURVE SMOOTH",
"357 203 OFFCURVE",
"336 182 OFFCURVE",
"305 182 CURVE SMOOTH",
"246 182 LINE"
);
},
{
closed = 1;
nodes = (
"246 544 LINE",
"305 544 LINE",
"334 544 OFFCURVE",
"354 525 OFFCURVE",
"354 497 CURVE SMOOTH",
"354 470 OFFCURVE",
"334 452 OFFCURVE",
"305 452 CURVE",
"246 452 LINE"
);
}
);
width = 590;
}
);
unicode = 0042;
},
{
color = 1;
glyphname = C;
lastChange = "2016-10-15 09:40:23 +0000";
layers = (
{
layerId = "262880E7-CFE1-4BDA-902E-E24798F3240A";
paths = (
{
closed = 1;
nodes = (
"352 -9 OFFCURVE",
"414 50 OFFCURVE",
"414 150 CURVE SMOOTH",
"414 152 LINE",
"392 152 LINE",
"392 150 LINE SMOOTH",
"392 64 OFFCURVE",
"340 11 OFFCURVE",
"253 11 CURVE SMOOTH",
"166 11 OFFCURVE",
"114 64 OFFCURVE",
"114 150 CURVE SMOOTH",
"114 550 LINE SMOOTH",
"114 637 OFFCURVE",
"168 690 OFFCURVE",
"253 690 CURVE SMOOTH",
"338 690 OFFCURVE",
"392 637 OFFCURVE",
"392 550 CURVE SMOOTH",
"392 548 LINE",
"414 548 LINE",
"414 550 LINE SMOOTH",
"414 650 OFFCURVE",
"352 709 OFFCURVE",
"253 709 CURVE SMOOTH",
"154 709 OFFCURVE",
"92 650 OFFCURVE",
"92 550 CURVE SMOOTH",
"92 150 LINE SMOOTH",
"92 50 OFFCURVE",
"154 -9 OFFCURVE",
"253 -9 CURVE SMOOTH"
);
}
);
width = 479;
},
{
layerId = "4F25946F-63AC-42D6-8D55-01CF6A99025B";
paths = (
{
closed = 1;
nodes = (
"447 -10 OFFCURVE",
"549 67 OFFCURVE",
"549 183 CURVE SMOOTH",
"549 278 LINE",
"337 278 LINE",
"337 223 LINE SMOOTH",
"337 196 OFFCURVE",
"319 178 OFFCURVE",
"293 178 CURVE SMOOTH",
"267 178 OFFCURVE",
"249 196 OFFCURVE",
"249 223 CURVE SMOOTH",
"249 477 LINE SMOOTH",
"249 504 OFFCURVE",
"267 522 OFFCURVE",
"293 522 CURVE SMOOTH",
"319 522 OFFCURVE",
"337 504 OFFCURVE",
"337 477 CURVE SMOOTH",
"337 422 LINE",
"549 422 LINE",
"549 517 LINE SMOOTH",
"549 633 OFFCURVE",
"447 710 OFFCURVE",
"293 710 CURVE SMOOTH",
"139 710 OFFCURVE",
"37 633 OFFCURVE",
"37 517 CURVE SMOOTH",
"37 183 LINE SMOOTH",
"37 67 OFFCURVE",
"139 -10 OFFCURVE",
"293 -10 CURVE SMOOTH"
);
}
);
width = 576;
}
);
unicode = 0043;
},
{
color = 1;
glyphname = D;
lastChange = "2016-10-15 09:52:24 +0000";
layers = (
{
layerId = "262880E7-CFE1-4BDA-902E-E24798F3240A";
paths = (
{
closed = 1;
nodes = (
"261 0 LINE SMOOTH",
"361 0 OFFCURVE",
"422 61 OFFCURVE",
"422 161 CURVE SMOOTH",
"422 539 LINE SMOOTH",
"422 639 OFFCURVE",
"361 700 OFFCURVE",
"261 700 CURVE SMOOTH",
"100 700 LINE",
"100 0 LINE"
);
},
{
closed = 1;
nodes = (
"122 679 LINE",
"261 679 LINE SMOOTH",
"347 679 OFFCURVE",
"400 626 OFFCURVE",
"400 539 CURVE SMOOTH",
"400 161 LINE SMOOTH",
"400 75 OFFCURVE",
"347 22 OFFCURVE",
"261 22 CURVE SMOOTH",
"122 22 LINE"
);
}
);
width = 512;
},
{
layerId = "4F25946F-63AC-42D6-8D55-01CF6A99025B";
paths = (
{
closed = 1;
nodes = (
"344 0 LINE SMOOTH",
"475 0 OFFCURVE",
"556 73 OFFCURVE",
"556 193 CURVE SMOOTH",
"556 507 LINE SMOOTH",
"556 627 OFFCURVE",
"475 700 OFFCURVE",
"344 700 CURVE SMOOTH",
"57 700 LINE",
"57 0 LINE"
);
},
{
closed = 1;
nodes = (
"265 526 LINE",
"300 526 LINE SMOOTH",
"327 526 OFFCURVE",
"344 509 OFFCURVE",
"344 481 CURVE SMOOTH",
"344 219 LINE SMOOTH",
"344 191 OFFCURVE",
"327 174 OFFCURVE",
"300 174 CURVE SMOOTH",
"265 174 LINE"
);
}
);
width = 593;
},
{
associatedMasterId = "262880E7-CFE1-4BDA-902E-E24798F3240A";
layerId = "5FA87B53-3B99-492D-B797-6707203108CA";
name = "DemiBold{119,100}";
paths = (
{
closed = 1;
nodes = (
"296 0 LINE SMOOTH",
"412 0 OFFCURVE",
"484 67 OFFCURVE",
"484 178 CURVE SMOOTH",
"484 522 LINE SMOOTH",
"484 633 OFFCURVE",
"412 700 OFFCURVE",
"296 700 CURVE SMOOTH",
"75 700 LINE",
"75 0 LINE"
);
},
{
closed = 1;
nodes = (
"199 597 LINE",
"272 597 LINE SMOOTH",
"326 597 OFFCURVE",
"360 563 OFFCURVE",
"360 508 CURVE SMOOTH",
"360 192 LINE SMOOTH",
"360 137 OFFCURVE",
"326 104 OFFCURVE",
"272 104 CURVE SMOOTH",
"199 104 LINE"
);
}
);
width = 545;
}
);
unicode = 0044;
},
{
color = 1;
glyphname = E;
lastChange = "2016-10-15 09:52:32 +0000";
layers = (
{
layerId = "262880E7-CFE1-4BDA-902E-E24798F3240A";
paths = (
{
closed = 1;
nodes = (
"421 0 LINE",
"421 22 LINE",
"122 22 LINE",
"122 679 LINE",
"421 679 LINE",
"421 700 LINE",
"100 700 LINE",
"100 0 LINE"
);
},
{
closed = 1;
nodes = (
"316 340 LINE",
"316 361 LINE",
"111 361 LINE",
"111 340 LINE"
);
}
);
width = 477;
},
{
layerId = "4F25946F-63AC-42D6-8D55-01CF6A99025B";
paths = (
{
closed = 1;
nodes = (
"519 0 LINE",
"519 188 LINE",
"265 188 LINE",
"265 512 LINE",
"519 512 LINE",
"519 700 LINE",
"57 700 LINE",
"57 0 LINE"
);
},
{
closed = 1;
nodes = (
"409 266 LINE",
"409 434 LINE",
"179 434 LINE",
"179 266 LINE"
);
}
);
width = 547;
},
{
associatedMasterId = "262880E7-CFE1-4BDA-902E-E24798F3240A";
layerId = "DE3E8A9A-5DAD-493A-9E98-F56387BAB1C1";
name = "DemiBold{119,100}";
paths = (
{
closed = 1;
nodes = (
"464 0 LINE",
"464 111 LINE",
"199 111 LINE",
"199 589 LINE",
"464 589 LINE",
"464 700 LINE",
"75 700 LINE",
"75 0 LINE"
);
},
{
closed = 1;
nodes = (
"356 300 LINE",
"356 400 LINE",
"147 400 LINE",
"147 300 LINE"
);
}
);
width = 520;
}
);
unicode = 0045;
},
{
color = 1;
glyphname = F;
lastChange = "2016-10-15 09:52:49 +0000";
layers = (
{
layerId = "262880E7-CFE1-4BDA-902E-E24798F3240A";
paths = (
{
closed = 1;
nodes = (
"122 0 LINE",
"122 679 LINE",
"421 679 LINE",
"421 700 LINE",
"100 700 LINE",
"100 0 LINE"
);
},
{
closed = 1;
nodes = (
"316 340 LINE",
"316 361 LINE",
"111 361 LINE",
"111 340 LINE"
);
}
);
width = 474;
},
{
layerId = "4F25946F-63AC-42D6-8D55-01CF6A99025B";
paths = (
{
closed = 1;
nodes = (
"269 0 LINE",
"269 512 LINE",
"517 512 LINE",
"517 700 LINE",
"61 700 LINE",
"61 0 LINE"
);
},
{
closed = 1;
nodes = (
"405 266 LINE",
"405 434 LINE",
"182 434 LINE",
"182 266 LINE"
);
}
);
width = 528;
},
{
associatedMasterId = "262880E7-CFE1-4BDA-902E-E24798F3240A";
layerId = "E70C252C-4698-4A26-900C-4F3FD049D2BA";
name = "DemiBold{119,100}";
paths = (
{
closed = 1;
nodes = (
"201 0 LINE",
"201 589 LINE",
"462 589 LINE",
"462 700 LINE",
"75 700 LINE",
"75 0 LINE"
);
},
{
closed = 1;
nodes = (
"354 300 LINE",
"354 400 LINE",
"149 400 LINE",
"149 300 LINE"
);
}
);
width = 509;
}
);
unicode = 0046;
},
{
color = 1;
glyphname = G;
lastChange = "2016-10-15 09:40:23 +0000";
layers = (
{
layerId = "262880E7-CFE1-4BDA-902E-E24798F3240A";
paths = (
{
closed = 1;
nodes = (
"352 -9 OFFCURVE",
"414 51 OFFCURVE",
"414 150 CURVE",
"414 361 LINE",
"253 361 LINE",
"253 340 LINE",
"392 340 LINE",
"392 150 LINE",
"392 63 OFFCURVE",
"340 11 OFFCURVE",
"253 11 CURVE SMOOTH",
"166 11 OFFCURVE",
"114 63 OFFCURVE",
"114 150 CURVE",
"114 550 LINE",
"114 637 OFFCURVE",
"166 690 OFFCURVE",
"253 690 CURVE SMOOTH",
"340 690 OFFCURVE",
"392 637 OFFCURVE",
"392 550 CURVE",
"414 550 LINE",
"414 649 OFFCURVE",
"352 709 OFFCURVE",
"253 709 CURVE SMOOTH",
"154 709 OFFCURVE",
"92 649 OFFCURVE",
"92 550 CURVE",
"92 150 LINE",
"92 51 OFFCURVE",
"154 -9 OFFCURVE",
"253 -9 CURVE SMOOTH"
);
}
);
width = 494;
},
{
layerId = "4F25946F-63AC-42D6-8D55-01CF6A99025B";
paths = (
{
closed = 1;
nodes = (
"442 -10 OFFCURVE",
"544 88 OFFCURVE",
"544 234 CURVE SMOOTH",
"544 400 LINE",
"288 400 LINE",
"288 270 LINE",
"332 270 LINE",
"332 234 LINE SMOOTH",
"332 200 OFFCURVE",
"314 178 OFFCURVE",
"288 178 CURVE SMOOTH",
"262 178 OFFCURVE",
"244 200 OFFCURVE",
"244 234 CURVE SMOOTH",
"244 466 LINE SMOOTH",
"244 500 OFFCURVE",
"262 522 OFFCURVE",
"288 522 CURVE SMOOTH",
"314 522 OFFCURVE",
"332 500 OFFCURVE",
"332 466 CURVE",
"544 466 LINE",
"544 612 OFFCURVE",
"442 710 OFFCURVE",
"288 710 CURVE SMOOTH",
"134 710 OFFCURVE",
"32 612 OFFCURVE",
"32 466 CURVE SMOOTH",
"32 234 LINE SMOOTH",
"32 88 OFFCURVE",
"134 -10 OFFCURVE",
"288 -10 CURVE SMOOTH"
);
}
);
width = 573;
},
{
associatedMasterId = "262880E7-CFE1-4BDA-902E-E24798F3240A";
layerId = "4BB53C67-4989-441E-8A0D-7E4F5FC64094";
name = "Medium {91, 100}";
paths = (
{
closed = 1;
nodes = (
"386 -11 OFFCURVE",
"463 65 OFFCURVE",
"463 182 CURVE",
"463 376 LINE",
"266 376 LINE",
"266 293 LINE",
"369 293 LINE",
"369 182 LINE",
"369 115 OFFCURVE",
"330 74 OFFCURVE",
"266 74 CURVE SMOOTH",
"202 74 OFFCURVE",
"163 115 OFFCURVE",
"163 182 CURVE",
"163 518 LINE",
"163 585 OFFCURVE",
"202 626 OFFCURVE",
"266 626 CURVE SMOOTH",
"330 626 OFFCURVE",
"369 585 OFFCURVE",
"369 518 CURVE",
"463 518 LINE",
"463 635 OFFCURVE",
"386 711 OFFCURVE",
"266 711 CURVE SMOOTH",
"146 711 OFFCURVE",
"69 635 OFFCURVE",
"69 518 CURVE",
"69 182 LINE",
"69 65 OFFCURVE",
"146 -11 OFFCURVE",
"266 -11 CURVE SMOOTH"
);
}
);
width = 524;
}
);
unicode = 0047;
},
{
color = 1;
glyphname = H;
lastChange = "2016-10-15 09:53:00 +0000";
layers = (
{
layerId = "262880E7-CFE1-4BDA-902E-E24798F3240A";
paths = (
{
closed = 1;
nodes = (
"422 0 LINE",
"422 700 LINE",
"400 700 LINE",
"400 0 LINE"
);
},
{
closed = 1;
nodes = (
"122 0 LINE",
"122 700 LINE",
"100 700 LINE",
"100 0 LINE"
);
},
{
closed = 1;
nodes = (
"405 340 LINE",
"405 361 LINE",
"117 361 LINE",
"117 340 LINE"
);
}
);
width = 522;
},
{
layerId = "4F25946F-63AC-42D6-8D55-01CF6A99025B";
paths = (
{
closed = 1;
nodes = (
"563 0 LINE",
"563 700 LINE",
"353 700 LINE",
"353 0 LINE"
);
},
{
closed = 1;
nodes = (
"265 0 LINE",
"265 700 LINE",
"55 700 LINE",
"55 0 LINE"
);
},
{
closed = 1;
nodes = (
"369 246 LINE",
"369 434 LINE",
"249 434 LINE",
"249 246 LINE"
);
}
);
width = 618;
}
);
unicode = 0048;
},
{
color = 1;
glyphname = I;
lastChange = "2016-10-15 09:40:23 +0000";
layers = (
{
layerId = "262880E7-CFE1-4BDA-902E-E24798F3240A";
paths = (
{
closed = 1;
nodes = (
"122 0 LINE",
"122 700 LINE",
"100 700 LINE",
"100 0 LINE"
);
}
);
width = 222;
},
{
layerId = "4F25946F-63AC-42D6-8D55-01CF6A99025B";
paths = (
{
closed = 1;
nodes = (
"255 0 LINE",
"255 700 LINE",
"53 700 LINE",
"53 0 LINE"
);
}
);
width = 308;
}
);
unicode = 0049;
},
{
color = 1;
glyphname = J;
lastChange = "2016-10-15 09:40:22 +0000";
layers = (
{
layerId = "262880E7-CFE1-4BDA-902E-E24798F3240A";
paths = (
{
closed = 1;
nodes = (
"317 -11 OFFCURVE",
"377 50 OFFCURVE",
"377 150 CURVE SMOOTH",
"377 700 LINE",
"355 700 LINE",
"355 150 LINE",
"355 64 OFFCURVE",
"303 11 OFFCURVE",
"219 11 CURVE SMOOTH",
"135 11 OFFCURVE",
"83 64 OFFCURVE",
"83 150 CURVE SMOOTH",
"83 195 LINE",
"61 195 LINE",
"61 150 LINE SMOOTH",
"61 50 OFFCURVE",
"121 -11 OFFCURVE",
"219 -11 CURVE SMOOTH"
);
}
);
width = 473;
},
{
layerId = "4F25946F-63AC-42D6-8D55-01CF6A99025B";
paths = (
{
closed = 1;
nodes = (
"412 -10 OFFCURVE",
"512 88 OFFCURVE",
"512 235 CURVE",
"507 702 LINE",
"295 700 LINE",
"300 233 LINE",
"300 200 OFFCURVE",
"284 178 OFFCURVE",
"261 178 CURVE SMOOTH",
"238 178 OFFCURVE",
"222 200 OFFCURVE",
"222 234 CURVE SMOOTH",
"222 290 LINE",
"10 290 LINE",
"10 234 LINE SMOOTH",
"10 88 OFFCURVE",
"110 -10 OFFCURVE",
"261 -10 CURVE SMOOTH"
);
}
);
width = 553;
}
);
unicode = 004A;
},
{
color = 1;
glyphname = K;
lastChange = "2016-10-15 09:53:28 +0000";
layers = (
{
layerId = "262880E7-CFE1-4BDA-902E-E24798F3240A";
paths = (
{
closed = 1;
nodes = (
"432 0 LINE",
"136 350 LINE",
"432 700 LINE",
"406 700 LINE",
"108 350 LINE",
"406 0 LINE"
);
},
{
closed = 1;
nodes = (
"122 0 LINE",
"122 700 LINE",
"100 700 LINE",
"100 0 LINE"
);
}
);
width = 487;
},
{
layerId = "4F25946F-63AC-42D6-8D55-01CF6A99025B";
paths = (
{
closed = 1;
nodes = (
"588 0 LINE",
"413 350 LINE",
"585 700 LINE",
"335 700 LINE",
"195 350 LINE",
"335 0 LINE"
);
},
{
closed = 1;
nodes = (
"265 0 LINE",
"265 700 LINE",
"57 700 LINE",
"57 0 LINE"
);
}
);
width = 593;
},
{
associatedMasterId = "262880E7-CFE1-4BDA-902E-E24798F3240A";
layerId = "52A147BE-A087-4D72-9A5D-908B44B10E17";
name = "Medium {91, 100}";
paths = (
{
closed = 1;
nodes = (
"482 0 LINE",
"218 350 LINE",
"480 700 LINE",
"365 700 LINE",
"100 350 LINE",
"365 0 LINE"
);
},
{
closed = 1;
nodes = (
"176 0 LINE",
"176 700 LINE",
"82 700 LINE",
"82 0 LINE"
);
}
);
width = 527;
},
{
associatedMasterId = "4F25946F-63AC-42D6-8D55-01CF6A99025B";
layerId = "57219196-2667-4E9B-A894-DD00D1913D76";
name = "Bold Oct 15 16, 02:53";
paths = (
{
closed = 1;
nodes = (
"590 0 LINE",
"413 350 LINE",
"585 700 LINE",
"335 700 LINE",
"193 350 LINE",
"335 0 LINE"
);
},
{
closed = 1;
nodes = (
"265 0 LINE",
"265 700 LINE",
"57 700 LINE",
"57 0 LINE"
);
}
);
width = 593;
}
);
unicode = 004B;
},
{
color = 1;
glyphname = L;
lastChange = "2016-10-15 09:51:49 +0000";
layers = (
{
layerId = "262880E7-CFE1-4BDA-902E-E24798F3240A";
paths = (
{
closed = 1;
nodes = (
"411 0 LINE",
"411 22 LINE",
"122 22 LINE",
"122 700 LINE",
"100 700 LINE",
"100 0 LINE"
);
}
);
width = 464;
},
{
layerId = "4F25946F-63AC-42D6-8D55-01CF6A99025B";
paths = (
{
closed = 1;
nodes = (
"524 0 LINE",
"524 192 LINE",
"265 192 LINE",
"265 700 LINE",
"57 700 LINE",
"57 0 LINE"
);
}
);
width = 535;
}
);
unicode = 004C;
},
{
color = 1;
glyphname = M;
lastChange = "2016-10-15 09:40:22 +0000";
layers = (
{
layerId = "262880E7-CFE1-4BDA-902E-E24798F3240A";
paths = (
{
closed = 1;
nodes = (
"119 0 LINE",
"122 655 LINE",
"279 324 LINE",
"437 655 LINE",
"437 0 LINE",
"458 0 LINE",
"458 700 LINE",
"436 700 LINE",
"279 372 LINE",
"122 700 LINE",
"100 700 LINE",
"100 0 LINE"
);
}
);
width = 558;
},
{
layerId = "4F25946F-63AC-42D6-8D55-01CF6A99025B";
paths = (
{
closed = 1;
nodes = (
"265 0 LINE",
"265 351 LINE",
"347 181 LINE",
"429 351 LINE",
"429 0 LINE",
"641 0 LINE",
"641 698 LINE",
"435 698 LINE",
"347 522 LINE",
"256 702 LINE",
"53 702 LINE",
"53 0 LINE"
);
}
);
width = 694;
},
{
associatedMasterId = "4F25946F-63AC-42D6-8D55-01CF6A99025B";
layerId = "BF6C6FBC-ABCF-4728-B32F-BE7F013B92F9";
name = "Medium {91, 100}";
paths = (
{
closed = 1;
nodes = (
"142 0 LINE",
"144 527 LINE",
"273 270 LINE",
"402 527 LINE",
"402 0 LINE",
"495 0 LINE",
"495 699 LINE",
"403 699 LINE",
"273 429 LINE",
"141 701 LINE",
"50 701 LINE",
"50 0 LINE"
);
}
);
width = 545;
}
);
unicode = 004D;
},
{
color = 1;
glyphname = N;
lastChange = "2016-10-15 09:40:23 +0000";
layers = (
{
layerId = "262880E7-CFE1-4BDA-902E-E24798F3240A";
paths = (
{
closed = 1;
nodes = (
"122 0 LINE",
"122 647 LINE",
"399 0 LINE",
"422 0 LINE",
"422 700 LINE",
"400 700 LINE",
"400 53 LINE",
"123 700 LINE",
"100 700 LINE",
"100 0 LINE"
);
}
);
width = 522;
},
{
layerId = "4F25946F-63AC-42D6-8D55-01CF6A99025B";
paths = (
{
closed = 1;
nodes = (
"255 0 LINE",
"258 238 LINE",
"376 0 LINE",
"545 0 LINE",
"545 700 LINE",
"343 700 LINE",
"343 409 LINE",
"219 700 LINE",
"53 700 LINE",
"53 0 LINE"
);
}
);
width = 598;
},
{
associatedMasterId = "4F25946F-63AC-42D6-8D55-01CF6A99025B";
layerId = "0B1885C1-B30B-43AF-BA88-F41889FEAFD7";
name = "DemiBold{119,100}";
paths = (
{
closed = 1;
nodes = (
"174 0 LINE",
"176 370 LINE",
"359 0 LINE",
"461 0 LINE",
"461 700 LINE",
"342 700 LINE",
"342 302 LINE",
"155 700 LINE",
"55 700 LINE",
"55 0 LINE"
);
}
);
width = 521;
}
);
unicode = 004E;
},
{
color = 1;
glyphname = O;
lastChange = "2016-10-15 09:40:22 +0000";
layers = (
{
layerId = "262880E7-CFE1-4BDA-902E-E24798F3240A";
paths = (
{
closed = 1;
nodes = (
"341 -9 OFFCURVE",
"413 60 OFFCURVE",
"413 150 CURVE SMOOTH",
"413 550 LINE SMOOTH",
"413 640 OFFCURVE",
"341 709 OFFCURVE",
"252 709 CURVE SMOOTH",
"163 709 OFFCURVE",
"91 640 OFFCURVE",
"91 550 CURVE SMOOTH",
"91 150 LINE SMOOTH",
"91 60 OFFCURVE",
"163 -9 OFFCURVE",
"252 -9 CURVE SMOOTH"
);
},
{
closed = 1;
nodes = (
"173 11 OFFCURVE",
"113 72 OFFCURVE",
"113 150 CURVE SMOOTH",
"113 550 LINE SMOOTH",
"113 629 OFFCURVE",
"175 690 OFFCURVE",
"252 690 CURVE SMOOTH",
"329 690 OFFCURVE",
"391 629 OFFCURVE",
"391 550 CURVE SMOOTH",
"391 150 LINE SMOOTH",
"391 72 OFFCURVE",
"331 11 OFFCURVE",
"252 11 CURVE SMOOTH"
);
}
);
width = 504;
},
{
layerId = "4F25946F-63AC-42D6-8D55-01CF6A99025B";
paths = (
{
closed = 1;
nodes = (
"448 -10 OFFCURVE",
"552 87 OFFCURVE",
"552 233 CURVE SMOOTH",
"552 467 LINE SMOOTH",
"552 613 OFFCURVE",
"448 710 OFFCURVE",
"292 710 CURVE SMOOTH",
"136 710 OFFCURVE",
"32 613 OFFCURVE",
"32 467 CURVE SMOOTH",
"32 233 LINE SMOOTH",
"32 87 OFFCURVE",
"136 -10 OFFCURVE",
"292 -10 CURVE SMOOTH"
);
},
{
closed = 1;
nodes = (
"263 174 OFFCURVE",
"244 194 OFFCURVE",
"244 223 CURVE SMOOTH",
"244 477 LINE SMOOTH",
"244 506 OFFCURVE",
"263 526 OFFCURVE",
"292 526 CURVE SMOOTH",
"321 526 OFFCURVE",
"340 506 OFFCURVE",
"340 477 CURVE SMOOTH",
"340 223 LINE SMOOTH",
"340 194 OFFCURVE",
"321 174 OFFCURVE",
"292 174 CURVE SMOOTH"
);
}
);
width = 584;
}
);
unicode = 004F;
},
{
color = 1;
glyphname = P;
lastChange = "2016-10-15 09:40:22 +0000";
layers = (
{
layerId = "262880E7-CFE1-4BDA-902E-E24798F3240A";
paths = (
{
closed = 1;
nodes = (
"122 0 LINE",
"122 679 LINE",
"246 679 LINE SMOOTH",
"346 679 OFFCURVE",
"407 616 OFFCURVE",
"407 513 CURVE SMOOTH",
"407 409 OFFCURVE",
"346 346 OFFCURVE",
"246 346 CURVE SMOOTH",
"117 346 LINE",
"117 324 LINE",
"246 325 LINE SMOOTH",
"359 326 OFFCURVE",
"429 397 OFFCURVE",
"429 512 CURVE SMOOTH",
"429 629 OFFCURVE",
"359 700 OFFCURVE",
"246 700 CURVE SMOOTH",
"100 700 LINE",
"100 0 LINE"
);
}
);
width = 493;
},
{
layerId = "4F25946F-63AC-42D6-8D55-01CF6A99025B";
paths = (
{
closed = 1;
nodes = (
"265 0 LINE",
"265 512 LINE",
"294 512 LINE SMOOTH",
"323 512 OFFCURVE",
"343 492 OFFCURVE",
"343 462 CURVE SMOOTH",
"343 432 OFFCURVE",
"323 412 OFFCURVE",
"294 412 CURVE SMOOTH",
"249 412 LINE",
"249 233 LINE",
"333 233 LINE SMOOTH",
"466 233 OFFCURVE",
"555 326 OFFCURVE",
"555 465 CURVE SMOOTH",
"555 606 OFFCURVE",
"463 700 OFFCURVE",
"324 700 CURVE SMOOTH",
"53 700 LINE",
"53 0 LINE"
);
}
);
width = 568;
}
);
unicode = 0050;
},
{
color = 1;
glyphname = Q;
lastChange = "2016-10-15 09:40:23 +0000";
layers = (
{
layerId = "262880E7-CFE1-4BDA-902E-E24798F3240A";
paths = (
{
closed = 1;
nodes = (
"341 -11 OFFCURVE",
"413 60 OFFCURVE",
"413 150 CURVE SMOOTH",
"413 550 LINE SMOOTH",
"413 640 OFFCURVE",
"341 711 OFFCURVE",
"252 711 CURVE SMOOTH",
"163 711 OFFCURVE",
"91 640 OFFCURVE",
"91 550 CURVE SMOOTH",
"91 150 LINE SMOOTH",
"91 60 OFFCURVE",
"163 -11 OFFCURVE",
"252 -11 CURVE SMOOTH"
);
},
{
closed = 1;
nodes = (
"430 -41 LINE",
"221 11 LINE",
"216 -7 LINE",
"423 -65 LINE"
);
},
{
closed = 1;
nodes = (
"173 11 OFFCURVE",
"113 72 OFFCURVE",
"113 150 CURVE SMOOTH",
"113 550 LINE SMOOTH",
"113 629 OFFCURVE",
"175 690 OFFCURVE",
"252 690 CURVE SMOOTH",
"329 690 OFFCURVE",
"391 629 OFFCURVE",
"391 550 CURVE SMOOTH",
"391 150 LINE SMOOTH",
"391 72 OFFCURVE",
"331 11 OFFCURVE",
"252 11 CURVE SMOOTH"
);
}
);
width = 505;
},
{
layerId = "4F25946F-63AC-42D6-8D55-01CF6A99025B";
paths = (
{
closed = 1;
nodes = (
"443 -10 OFFCURVE",
"545 87 OFFCURVE",
"545 233 CURVE SMOOTH",
"545 467 LINE SMOOTH",
"545 613 OFFCURVE",
"443 710 OFFCURVE",
"289 710 CURVE SMOOTH",
"135 710 OFFCURVE",
"33 613 OFFCURVE",
"33 467 CURVE SMOOTH",
"33 233 LINE SMOOTH",
"33 87 OFFCURVE",
"135 -10 OFFCURVE",
"289 -10 CURVE SMOOTH"
);
},
{
closed = 1;
nodes = (
"561 113 LINE",
"237 118 LINE",
"237 -6 LINE",
"553 -43 LINE"
);
},
{
closed = 1;
nodes = (
"263 178 OFFCURVE",
"245 196 OFFCURVE",
"245 223 CURVE SMOOTH",
"245 477 LINE SMOOTH",
"245 504 OFFCURVE",
"263 522 OFFCURVE",
"289 522 CURVE SMOOTH",
"315 522 OFFCURVE",
"333 504 OFFCURVE",
"333 477 CURVE SMOOTH",
"333 223 LINE SMOOTH",
"333 196 OFFCURVE",
"315 178 OFFCURVE",
"289 178 CURVE SMOOTH"
);
}
);
width = 591;
}
);
unicode = 0051;
},
{
color = 1;
glyphname = R;
lastChange = "2016-10-15 09:40:22 +0000";
layers = (
{
layerId = "262880E7-CFE1-4BDA-902E-E24798F3240A";
paths = (
{
closed = 1;
nodes = (
"122 0 LINE",
"122 679 LINE",
"249 679 LINE SMOOTH",
"349 679 OFFCURVE",
"410 616 OFFCURVE",
"410 512 CURVE SMOOTH",
"410 408 OFFCURVE",
"349 344 OFFCURVE",
"249 344 CURVE SMOOTH",
"117 344 LINE",
"117 322 LINE",
"249 323 LINE SMOOTH",
"362 324 OFFCURVE",
"432 395 OFFCURVE",
"432 511 CURVE SMOOTH",
"432 628 OFFCURVE",
"362 700 OFFCURVE",
"249 700 CURVE SMOOTH",
"100 700 LINE",
"100 0 LINE"
);
},
{
closed = 1;
nodes = (
"390 0 LINE",
"271 340 LINE",
"251 332 LINE",
"366 0 LINE"
);
}
);
width = 497;
},
{
layerId = "4F25946F-63AC-42D6-8D55-01CF6A99025B";
paths = (
{
closed = 1;
nodes = (
"255 0 LINE",
"255 512 LINE",
"307 512 LINE SMOOTH",
"336 512 OFFCURVE",
"356 492 OFFCURVE",
"356 462 CURVE SMOOTH",
"356 432 OFFCURVE",
"336 412 OFFCURVE",
"307 412 CURVE SMOOTH",
"239 412 LINE",
"239 259 LINE",
"399 259 LINE SMOOTH",
"508 259 OFFCURVE",
"580 343 OFFCURVE",
"580 469 CURVE SMOOTH",
"580 608 OFFCURVE",
"496 700 OFFCURVE",
"369 700 CURVE SMOOTH",
"53 700 LINE",
"53 0 LINE"
);
},
{
closed = 1;
nodes = (
"605 0 LINE",
"432 320 LINE",
"216 320 LINE",
"367 0 LINE"
);
}
);
width = 613;
},
{
associatedMasterId = "4F25946F-63AC-42D6-8D55-01CF6A99025B";
layerId = "226A43B5-5CBD-42C7-8731-3A5BF7E3E8A0";
name = "Medium{91,100}";
paths = (
{
closed = 1;
nodes = (
"173 0 LINE",
"173 616 LINE",
"289 616 LINE SMOOTH",
"359 616 OFFCURVE",
"405 567 OFFCURVE",
"405 494 CURVE SMOOTH",
"405 421 OFFCURVE",
"359 372 OFFCURVE",
"289 372 CURVE SMOOTH",
"164 372 LINE",
"164 298 LINE",
"303 299 LINE SMOOTH",
"412 299 OFFCURVE",
"485 377 OFFCURVE",
"485 495 CURVE SMOOTH",
"485 618 OFFCURVE",
"408 700 OFFCURVE",
"292 700 CURVE SMOOTH",
"79 700 LINE",
"79 0 LINE"
);
},
{
closed = 1;
nodes = (
"460 0 LINE",
"338 334 LINE",
"247 329 LINE",
"355 0 LINE"
);
}
);
width = 538;
}
);
unicode = 0052;
},
{
color = 1;
glyphname = S;
lastChange = "2016-10-15 09:40:24 +0000";
layers = (
{
layerId = "262880E7-CFE1-4BDA-902E-E24798F3240A";
paths = (
{
closed = 1;
nodes = (
"331 -9 OFFCURVE",
"395 50 OFFCURVE",
"395 149 CURVE SMOOTH",
"395 255 OFFCURVE",
"322 307 OFFCURVE",
"240 361 CURVE SMOOTH",
"159 414 OFFCURVE",
"95 459 OFFCURVE",
"95 552 CURVE SMOOTH",
"95 636 OFFCURVE",
"147 690 OFFCURVE",
"231 690 CURVE SMOOTH",
"315 690 OFFCURVE",
"367 637 OFFCURVE",
"367 550 CURVE SMOOTH",
"367 500 LINE",
"389 500 LINE",
"389 550 LINE SMOOTH",
"389 650 OFFCURVE",
"329 709 OFFCURVE",
"231 709 CURVE SMOOTH",
"133 709 OFFCURVE",
"73 649 OFFCURVE",
"73 553 CURVE SMOOTH",
"73 446 OFFCURVE",
"148 394 OFFCURVE",
"226 342 CURVE SMOOTH",
"303 291 OFFCURVE",
"373 244 OFFCURVE",
"373 148 CURVE SMOOTH",
"373 63 OFFCURVE",
"317 11 OFFCURVE",
"235 11 CURVE SMOOTH",
"147 11 OFFCURVE",
"101 64 OFFCURVE",
"101 150 CURVE SMOOTH",
"101 200 LINE",
"79 200 LINE",
"79 150 LINE SMOOTH",
"79 50 OFFCURVE",
"134 -9 OFFCURVE",
"236 -9 CURVE SMOOTH"
);
}
);
width = 468;
},
{
layerId = "4F25946F-63AC-42D6-8D55-01CF6A99025B";
paths = (
{
closed = 1;
nodes = (
"436 -10 OFFCURVE",
"530 74 OFFCURVE",
"530 200 CURVE SMOOTH",
"530 312 OFFCURVE",
"456 381 OFFCURVE",
"343 425 CURVE SMOOTH",
"297 443 OFFCURVE",
"244 456 OFFCURVE",
"244 489 CURVE SMOOTH",
"244 503 OFFCURVE",
"254 518 OFFCURVE",
"278 518 CURVE SMOOTH",
"304 518 OFFCURVE",
"319 501 OFFCURVE",
"319 479 CURVE SMOOTH",
"319 464 LINE",
"531 474 LINE",
"531 479 LINE SMOOTH",
"531 617 OFFCURVE",
"424 710 OFFCURVE",
"272 710 CURVE SMOOTH",
"125 710 OFFCURVE",
"29 624 OFFCURVE",
"29 498 CURVE SMOOTH",
"29 389 OFFCURVE",
"102 318 OFFCURVE",
"216 275 CURVE SMOOTH",
"258 259 OFFCURVE",
"314 245 OFFCURVE",
"314 214 CURVE SMOOTH",
"314 201 OFFCURVE",
"305 182 OFFCURVE",
"279 182 CURVE SMOOTH",
"255 182 OFFCURVE",
"240 199 OFFCURVE",
"240 231 CURVE SMOOTH",
"240 236 LINE",
"17 226 LINE",
"17 221 LINE SMOOTH",
"17 83 OFFCURVE",
"123 -10 OFFCURVE",
"283 -10 CURVE SMOOTH"
);
}
);
width = 552;
}
);
unicode = 0053;
},
{
color = 1;
glyphname = T;
lastChange = "2016-10-15 09:40:22 +0000";
layers = (
{
layerId = "262880E7-CFE1-4BDA-902E-E24798F3240A";
paths = (
{
closed = 1;
nodes = (
"221 0 LINE",
"221 689 LINE",
"199 689 LINE",
"199 0 LINE"
);
},
{
closed = 1;
nodes = (
"375 679 LINE",
"375 700 LINE",
"53 700 LINE",
"53 679 LINE"
);
}
);
width = 428;
},
{
layerId = "4F25946F-63AC-42D6-8D55-01CF6A99025B";
paths = (
{
closed = 1;
nodes = (
"372 0 LINE",
"372 606 LINE",
"160 606 LINE",
"160 0 LINE"
);
},
{
closed = 1;
nodes = (
"520 500 LINE",
"520 700 LINE",
"12 700 LINE",
"12 500 LINE"
);
}
);
width = 532;
}
);
unicode = 0054;
},
{
color = 1;
glyphname = U;
lastChange = "2016-10-15 09:40:22 +0000";
layers = (
{
layerId = "262880E7-CFE1-4BDA-902E-E24798F3240A";
paths = (
{
closed = 1;
nodes = (
"356 -9 OFFCURVE",
"418 50 OFFCURVE",
"418 150 CURVE SMOOTH",
"418 700 LINE",
"396 700 LINE",
"396 150 LINE SMOOTH",
"396 64 OFFCURVE",
"344 11 OFFCURVE",
"257 11 CURVE SMOOTH",
"170 11 OFFCURVE",
"118 64 OFFCURVE",
"118 150 CURVE SMOOTH",
"118 700 LINE",
"96 700 LINE",
"96 150 LINE SMOOTH",
"96 50 OFFCURVE",
"158 -9 OFFCURVE",
"257 -9 CURVE SMOOTH"
);
}
);
width = 514;
},
{
layerId = "4F25946F-63AC-42D6-8D55-01CF6A99025B";
paths = (
{
closed = 1;
nodes = (
"453 -10 OFFCURVE",
"555 88 OFFCURVE",
"555 234 CURVE SMOOTH",
"555 700 LINE",
"343 700 LINE",
"343 234 LINE SMOOTH",
"343 200 OFFCURVE",
"325 178 OFFCURVE",
"299 178 CURVE SMOOTH",
"273 178 OFFCURVE",
"255 200 OFFCURVE",
"255 234 CURVE SMOOTH",
"255 700 LINE",
"43 700 LINE",
"43 234 LINE SMOOTH",
"43 88 OFFCURVE",
"145 -10 OFFCURVE",
"299 -10 CURVE SMOOTH"
);
}
);
width = 598;
}
);
unicode = 0055;
},
{
color = 1;
glyphname = V;
lastChange = "2016-10-15 09:40:22 +0000";
layers = (
{
layerId = "262880E7-CFE1-4BDA-902E-E24798F3240A";
paths = (
{
closed = 1;
nodes = (
"245 0 LINE",
"410 700 LINE",
"388 700 LINE",
"234 40 LINE",
"80 700 LINE",
"58 700 LINE",
"223 0 LINE"
);
}
);
width = 468;
},
{
layerId = "4F25946F-63AC-42D6-8D55-01CF6A99025B";
paths = (
{
closed = 1;
nodes = (
"386 0 LINE",
"556 700 LINE",
"341 700 LINE",
"280 300 LINE",
"219 700 LINE",
"4 700 LINE",
"174 0 LINE"
);
}
);
width = 560;
},
{
associatedMasterId = "262880E7-CFE1-4BDA-902E-E24798F3240A";
layerId = "4E067D8C-FFB4-48BF-AEBE-68DF3842147F";
name = "Medium {91,100}";
paths = (
{
closed = 1;
nodes = (
"299 0 LINE",
"465 700 LINE",
"370 700 LINE",
"251 147 LINE",
"133 700 LINE",
"37 700 LINE",
"204 0 LINE"
);
}
);
width = 503;
}
);
unicode = 0056;
},
{
color = 1;
glyphname = W;
lastChange = "2016-10-15 09:40:23 +0000";
layers = (
{
layerId = "262880E7-CFE1-4BDA-902E-E24798F3240A";
paths = (
{
closed = 1;
nodes = (
"207 0 LINE",
"321 648 LINE",
"435 0 LINE",
"457 0 LINE",
"582 700 LINE",
"560 700 LINE",
"446 52 LINE",
"332 700 LINE",
"310 700 LINE",
"196 52 LINE",
"82 700 LINE",
"60 700 LINE",
"185 0 LINE"
);
}
);
width = 642;
},
{
layerId = "4F25946F-63AC-42D6-8D55-01CF6A99025B";
paths = (
{
closed = 1;
nodes = (
"378 1 LINE",
"414 287 LINE",
"450 1 LINE",
"668 1 LINE",
"822 700 LINE",
"606 700 LINE",
"564 383 LINE",
"522 699 LINE",
"306 699 LINE",
"264 383 LINE",
"222 700 LINE",
"6 700 LINE",
"160 1 LINE"
);
}
);
width = 828;
},
{
associatedMasterId = "4F25946F-63AC-42D6-8D55-01CF6A99025B";
layerId = "11607437-4DCD-4C94-9EDA-1AD54BE1AE48";
name = "Medium { 91, 100}";
paths = (
{
closed = 1;
nodes = (
"282 0 LINE",
"356 471 LINE",
"431 0 LINE",
"527 0 LINE",
"663 700 LINE",
"567 700 LINE",
"483 206 LINE",
"404 700 LINE",
"308 700 LINE",
"230 206 LINE",
"145 700 LINE",
"49 700 LINE",
"186 0 LINE"
);
}
);
width = 713;
}
);
unicode = 0057;
},
{
color = 1;
glyphname = X;
lastChange = "2016-10-15 09:51:06 +0000";
layers = (
{
layerId = "262880E7-CFE1-4BDA-902E-E24798F3240A";
paths = (
{
closed = 1;
nodes = (
"368 700 LINE",
"225 376 LINE",
"82 700 LINE",
"59 700 LINE",
"214 350 LINE",
"59 0 LINE",
"82 0 LINE",
"225 324 LINE",
"368 0 LINE",
"391 0 LINE",
"237 350 LINE",
"391 700 LINE"
);
}
);
width = 450;
},
{
layerId = "4F25946F-63AC-42D6-8D55-01CF6A99025B";
paths = (
{
closed = 1;
nodes = (
"344 700 LINE",
"293 565 LINE",
"242 700 LINE",
"4 700 LINE",
"174 350 LINE",
"4 0 LINE",
"242 0 LINE",
"293 135 LINE",
"344 0 LINE",
"582 0 LINE",
"412 350 LINE",
"582 700 LINE"
);
}
);
width = 586;
},
{
associatedMasterId = "4F25946F-63AC-42D6-8D55-01CF6A99025B";
layerId = "A81EC77E-A514-41C1-A690-EF61EA7402F1";
name = "Bold Oct 15 16, 02:50";
paths = (
{
closed = 1;
nodes = (
"4 700 LINE",
"242 700 LINE",
"582 0 LINE",
"344 0 LINE"
);
},
{
closed = 1;
nodes = (
"344 700 LINE",
"582 700 LINE",
"242 0 LINE",
"4 0 LINE"
);
}
);
width = 586;
},
{
associatedMasterId = "262880E7-CFE1-4BDA-902E-E24798F3240A";
layerId = "F2B2385B-1C24-46F1-AB29-8D87B4EEE0C2";
name = "Light Oct 15 16, 02:50";
paths = (
{
closed = 1;
nodes = (
"59 700 LINE",
"82 700 LINE",
"391 0 LINE",
"368 0 LINE"
);
},
{
closed = 1;
nodes = (
"368 700 LINE",
"391 700 LINE",
"82 0 LINE",
"59 0 LINE"
);
}
);
width = 450;
}
);
unicode = 0058;
},
{
color = 1;
glyphname = Y;
lastChange = "2016-10-15 09:53:43 +0000";
layers = (
{
layerId = "262880E7-CFE1-4BDA-902E-E24798F3240A";
paths = (
{
closed = 1;
nodes = (
"388 700 LINE",
"363 700 LINE",
"221 379 LINE",
"80 700 LINE",
"54 700 LINE",
"221 328 LINE"
);
},
{
closed = 1;
nodes = (
"232 0 LINE",
"232 350 LINE",
"210 350 LINE",
"210 0 LINE"
);
}
);
width = 442;
},
{
layerId = "4F25946F-63AC-42D6-8D55-01CF6A99025B";
paths = (
{
closed = 1;
nodes = (
"638 700 LINE",
"412 700 LINE",
"325 479 LINE",
"237 700 LINE",
"1 700 LINE",
"324 12 LINE"
);
},
{
closed = 1;
nodes = (
"432 0 LINE",
"432 350 LINE",
"216 350 LINE",
"216 0 LINE"
);
}
);
width = 639;
}
);
unicode = 0059;
},
{
color = 1;
glyphname = Z;
lastChange = "2016-10-15 09:40:22 +0000";
layers = (
{
layerId = "262880E7-CFE1-4BDA-902E-E24798F3240A";
paths = (
{
closed = 1;
nodes = (
"372 0 LINE",
"372 22 LINE",
"88 22 LINE",
"388 700 LINE",
"72 700 LINE",
"72 679 LINE",
"356 679 LINE",
"56 0 LINE"
);
}
);
width = 444;
},
{
layerId = "4F25946F-63AC-42D6-8D55-01CF6A99025B";
paths = (
{
closed = 1;
nodes = (
"485 0 LINE",
"485 198 LINE",
"295 198 LINE",
"485 700 LINE",
"20 700 LINE",
"20 502 LINE",
"215 502 LINE",
"17 0 LINE"
);
}
);
width = 504;
}
);
unicode = 005A;
},
{
color = 1;
glyphname = a;
lastChange = "2016-10-15 09:40:24 +0000";
layers = (
{
layerId = "262880E7-CFE1-4BDA-902E-E24798F3240A";
paths = (
{
closed = 1;
nodes = (
"323 -7 OFFCURVE",
"382 56 OFFCURVE",
"382 156 CURVE SMOOTH",
"382 344 LINE SMOOTH",
"382 444 OFFCURVE",
"323 507 OFFCURVE",
"227 507 CURVE SMOOTH",
"130 507 OFFCURVE",
"67 446 OFFCURVE",
"67 346 CURVE SMOOTH",
"67 154 LINE SMOOTH",
"67 54 OFFCURVE",
"130 -7 OFFCURVE",
"227 -7 CURVE SMOOTH"
);
},
{
closed = 1;
nodes = (
"141 15 OFFCURVE",
"89 68 OFFCURVE",
"89 154 CURVE SMOOTH",
"89 346 LINE SMOOTH",
"89 432 OFFCURVE",
"143 486 OFFCURVE",
"228 486 CURVE SMOOTH",
"313 486 OFFCURVE",
"367 432 OFFCURVE",
"367 346 CURVE SMOOTH",
"367 154 LINE SMOOTH",
"367 68 OFFCURVE",
"315 15 OFFCURVE",
"228 15 CURVE SMOOTH"
);
},
{
closed = 1;
nodes = (
"389 0 LINE",
"389 500 LINE",
"367 500 LINE",
"367 0 LINE"
);
}
);
width = 469;
},
{
layerId = "4F25946F-63AC-42D6-8D55-01CF6A99025B";
paths = (
{
closed = 1;
nodes = (
"326 -5 OFFCURVE",
"406 88 OFFCURVE",
"406 240 CURVE SMOOTH",
"406 254 LINE SMOOTH",
"406 411 OFFCURVE",
"326 507 OFFCURVE",
"195 507 CURVE",
"91 507 OFFCURVE",
"27 447 OFFCURVE",
"27 350 CURVE SMOOTH",
"27 160 LINE SMOOTH",
"27 59 OFFCURVE",
"91 -3 OFFCURVE",
"196 -4 CURVE SMOOTH"
);
},
{
closed = 1;
nodes = (
"252 165 OFFCURVE",
"235 181 OFFCURVE",
"235 206 CURVE SMOOTH",
"235 298 LINE SMOOTH",
"235 323 OFFCURVE",
"252 339 OFFCURVE",
"278 339 CURVE SMOOTH",
"304 339 OFFCURVE",
"322 323 OFFCURVE",
"322 298 CURVE SMOOTH",
"322 206 LINE SMOOTH",
"322 181 OFFCURVE",
"304 165 OFFCURVE",
"278 165 CURVE SMOOTH"
);
},
{
closed = 1;
nodes = (
"529 0 LINE",
"529 500 LINE",
"322 500 LINE",
"322 0 LINE"
);
}
);
width = 571;
},
{
associatedMasterId = "4F25946F-63AC-42D6-8D55-01CF6A99025B";
layerId = "47FC566B-2B97-4943-A9EB-638501BAD42D";
name = "DemiBold{119,100}";
paths = (
{
closed = 1;
nodes = (
"341 -6 OFFCURVE",
"411 72 OFFCURVE",
"411 196 CURVE SMOOTH",
"411 301 LINE SMOOTH",
"411 416 OFFCURVE",
"351 507 OFFCURVE",
"220 507 CURVE SMOOTH",
"113 507 OFFCURVE",
"46 447 OFFCURVE",
"46 348 CURVE SMOOTH",
"46 157 LINE SMOOTH",
"46 57 OFFCURVE",
"114 -6 OFFCURVE",
"221 -6 CURVE SMOOTH"
);
},
{
closed = 1;
nodes = (
"200 95 OFFCURVE",
"167 128 OFFCURVE",
"167 182 CURVE SMOOTH",
"167 320 LINE SMOOTH",
"167 374 OFFCURVE",
"200 407 OFFCURVE",
"255 407 CURVE SMOOTH",
"310 407 OFFCURVE",
"343 374 OFFCURVE",
"343 320 CURVE SMOOTH",
"343 182 LINE SMOOTH",
"343 128 OFFCURVE",
"310 95 OFFCURVE",
"255 95 CURVE SMOOTH"
);
},
{
closed = 1;
nodes = (
"464 0 LINE",
"464 500 LINE",
"343 500 LINE",
"343 0 LINE"
);
}
);
width = 524;
visible = 1;
}
);
unicode = 0061;
},
{
color = 1;
glyphname = b;
lastChange = "2016-10-15 09:40:23 +0000";
layers = (
{
layerId = "262880E7-CFE1-4BDA-902E-E24798F3240A";
paths = (
{
closed = 1;
nodes = (
"342 -7 OFFCURVE",
"402 54 OFFCURVE",
"402 154 CURVE SMOOTH",
"402 346 LINE SMOOTH",
"402 446 OFFCURVE",
"342 507 OFFCURVE",
"244 507 CURVE SMOOTH",
"146 507 OFFCURVE",
"82 444 OFFCURVE",
"82 344 CURVE SMOOTH",
"82 156 LINE SMOOTH",
"82 56 OFFCURVE",
"146 -7 OFFCURVE",
"244 -7 CURVE SMOOTH"
);
},
{
closed = 1;
nodes = (
"102 0 LINE",
"102 700 LINE",
"80 700 LINE",
"80 0 LINE"
);
},
{
closed = 1;
nodes = (
"155 15 OFFCURVE",
"102 68 OFFCURVE",
"102 154 CURVE SMOOTH",
"102 346 LINE SMOOTH",
"102 433 OFFCURVE",
"155 486 OFFCURVE",
"241 486 CURVE SMOOTH",
"327 486 OFFCURVE",
"380 433 OFFCURVE",
"380 346 CURVE SMOOTH",
"380 154 LINE SMOOTH",
"380 68 OFFCURVE",
"327 15 OFFCURVE",
"241 15 CURVE SMOOTH"
);
}
);
width = 470;
},
{
layerId = "4F25946F-63AC-42D6-8D55-01CF6A99025B";
paths = (
{
closed = 1;
nodes = (
"480 -1 OFFCURVE",
"544 55 OFFCURVE",
"544 160 CURVE SMOOTH",
"544 350 LINE SMOOTH",
"544 444 OFFCURVE",
"469 507 OFFCURVE",
"356 507 CURVE",
"161 507 OFFCURVE",
"145 245 OFFCURVE",
"145 234 CURVE SMOOTH",
"145 220 LINE SMOOTH",
"145 120 OFFCURVE",
"236 -9 OFFCURVE",
"384 -4 CURVE SMOOTH"
);
},
{
closed = 1;
nodes = (
"250 -2 LINE",
"250 700 LINE",
"42 700 LINE",
"42 -2 LINE"
);
},
{
closed = 1;
nodes = (
"267 168 OFFCURVE",
"250 184 OFFCURVE",
"250 209 CURVE SMOOTH",
"250 301 LINE SMOOTH",
"250 326 OFFCURVE",
"267 342 OFFCURVE",
"293 342 CURVE SMOOTH",
"319 342 OFFCURVE",
"337 326 OFFCURVE",
"337 301 CURVE SMOOTH",
"337 209 LINE SMOOTH",
"337 184 OFFCURVE",
"319 168 OFFCURVE",
"293 168 CURVE SMOOTH"
);
}
);
width = 570;
},
{
associatedMasterId = "4F25946F-63AC-42D6-8D55-01CF6A99025B";
layerId = "93BAF2E2-22D9-4221-A5AC-BC4294365A74";
name = "DemiBold {119,100}";
paths = (
{
closed = 1;
nodes = (
"407 -6 OFFCURVE",
"475 57 OFFCURVE",
"475 157 CURVE SMOOTH",
"475 348 LINE SMOOTH",
"475 447 OFFCURVE",
"408 507 OFFCURVE",
"301 507 CURVE SMOOTH",
"170 507 OFFCURVE",
"110 416 OFFCURVE",
"110 301 CURVE SMOOTH",
"110 196 LINE SMOOTH",
"110 72 OFFCURVE",
"180 -6 OFFCURVE",
"300 -6 CURVE SMOOTH"
);
},
{
closed = 1;
nodes = (
"178 -1 LINE",
"178 700 LINE",
"58 700 LINE",
"58 -1 LINE"
);
},
{
closed = 1;
nodes = (
"211 95 OFFCURVE",
"178 128 OFFCURVE",
"178 182 CURVE SMOOTH",
"178 320 LINE SMOOTH",
"178 374 OFFCURVE",
"211 407 OFFCURVE",
"266 407 CURVE SMOOTH",
"321 407 OFFCURVE",
"354 374 OFFCURVE",
"354 320 CURVE SMOOTH",
"354 182 LINE SMOOTH",
"354 128 OFFCURVE",
"321 95 OFFCURVE",
"266 95 CURVE SMOOTH"
);
}
);
width = 519;
}
);
unicode = 0062;
},
{
color = 1;
glyphname = c;
lastChange = "2016-10-15 10:06:08 +0000";
layers = (
{
layerId = "262880E7-CFE1-4BDA-902E-E24798F3240A";
paths = (
{
closed = 1;
nodes = (
"327 -5 OFFCURVE",
"389 54 OFFCURVE",
"389 154 CURVE SMOOTH",
"389 157 LINE",
"367 157 LINE",
"367 154 LINE SMOOTH",
"367 68 OFFCURVE",
"315 15 OFFCURVE",
"228 15 CURVE SMOOTH",
"141 15 OFFCURVE",
"89 68 OFFCURVE",
"89 154 CURVE SMOOTH",
"89 346 LINE SMOOTH",
"89 433 OFFCURVE",
"143 486 OFFCURVE",
"228 486 CURVE SMOOTH",
"313 486 OFFCURVE",
"367 433 OFFCURVE",
"367 346 CURVE SMOOTH",
"367 344 LINE",
"389 344 LINE",
"389 346 LINE SMOOTH",
"389 446 OFFCURVE",
"327 505 OFFCURVE",
"228 505 CURVE SMOOTH",
"129 505 OFFCURVE",
"67 446 OFFCURVE",
"67 346 CURVE SMOOTH",
"67 154 LINE SMOOTH",
"67 54 OFFCURVE",
"129 -5 OFFCURVE",
"228 -5 CURVE SMOOTH"
);
}
);
width = 441;
},
{
layerId = "4F25946F-63AC-42D6-8D55-01CF6A99025B";
paths = (
{
closed = 1;
nodes = (
"418 -8 OFFCURVE",
"514 80 OFFCURVE",
"524 231 CURVE",
"524 233 LINE",
"313 233 LINE",
"313 206 LINE SMOOTH",
"313 181 OFFCURVE",
"295 165 OFFCURVE",
"269 165 CURVE SMOOTH",
"243 165 OFFCURVE",
"226 181 OFFCURVE",
"226 206 CURVE",
"226 298 LINE",
"226 323 OFFCURVE",
"243 339 OFFCURVE",
"269 339 CURVE SMOOTH",
"295 339 OFFCURVE",
"313 323 OFFCURVE",
"313 298 CURVE",
"313 277 LINE",
"524 277 LINE",
"524 279 LINE",
"522 423 OFFCURVE",
"427 508 OFFCURVE",
"268 508 CURVE SMOOTH",
"108 508 OFFCURVE",
"14 415 OFFCURVE",
"14 256 CURVE SMOOTH",
"14 247 LINE SMOOTH",
"14 86 OFFCURVE",
"108 -8 OFFCURVE",
"267 -8 CURVE SMOOTH"
);
}
);
width = 537;
},
{
associatedMasterId = "4F25946F-63AC-42D6-8D55-01CF6A99025B";
layerId = "7B6958F8-F0D4-40F0-82E9-17D44A566858";
name = "DemiBold{119,100}";
paths = (
{
closed = 1;
nodes = (
"375 -9 OFFCURVE",
"456 69 OFFCURVE",
"461 195 CURVE SMOOTH",
"461 198 LINE",
"338 198 LINE",
"338 182 LINE SMOOTH",
"338 130 OFFCURVE",
"303 95 OFFCURVE",
"250 95 CURVE SMOOTH",
"197 95 OFFCURVE",
"162 130 OFFCURVE",
"162 182 CURVE SMOOTH",
"162 320 LINE SMOOTH",
"162 372 OFFCURVE",
"197 407 OFFCURVE",
"250 407 CURVE SMOOTH",
"303 407 OFFCURVE",
"338 372 OFFCURVE",
"338 320 CURVE SMOOTH",
"338 308 LINE",
"461 308 LINE",
"461 310 LINE SMOOTH",
"460 433 OFFCURVE",
"379 509 OFFCURVE",
"249 509 CURVE SMOOTH",
"119 509 OFFCURVE",
"39 429 OFFCURVE",
"39 298 CURVE SMOOTH",
"39 204 LINE SMOOTH",
"39 72 OFFCURVE",
"119 -9 OFFCURVE",
"249 -9 CURVE SMOOTH"
);
}
);
width = 492;
}
);
unicode = 0063;
},
{
color = 1;
glyphname = e;
lastChange = "2016-10-15 10:05:18 +0000";
layers = (
{
layerId = "262880E7-CFE1-4BDA-902E-E24798F3240A";
paths = (
{
closed = 1;
nodes = (
"327 -5 OFFCURVE",
"389 54 OFFCURVE",
"389 154 CURVE SMOOTH",
"389 158 LINE",
"367 158 LINE",
"367 154 LINE SMOOTH",
"367 68 OFFCURVE",
"315 15 OFFCURVE",
"228 15 CURVE SMOOTH",
"141 15 OFFCURVE",
"89 68 OFFCURVE",
"89 154 CURVE SMOOTH",
"89 346 LINE SMOOTH",
"89 433 OFFCURVE",
"143 486 OFFCURVE",
"228 486 CURVE SMOOTH",
"313 486 OFFCURVE",
"367 433 OFFCURVE",
"367 346 CURVE SMOOTH",
"367 261 LINE",
"84 261 LINE",
"84 240 LINE",
"389 240 LINE",
"389 346 LINE SMOOTH",
"389 446 OFFCURVE",
"327 505 OFFCURVE",
"228 505 CURVE SMOOTH",
"129 505 OFFCURVE",
"67 446 OFFCURVE",
"67 346 CURVE SMOOTH",
"67 154 LINE SMOOTH",
"67 54 OFFCURVE",
"129 -5 OFFCURVE",
"228 -5 CURVE SMOOTH"
);
}
);
width = 451;
},
{
layerId = "4F25946F-63AC-42D6-8D55-01CF6A99025B";
paths = (
{
closed = 1;
nodes = (
"416 -8 OFFCURVE",
"513 68 OFFCURVE",
"522 193 CURVE",
"522 193 LINE",
"322 193 LINE",
"322 193 LINE",
"318 164 OFFCURVE",
"294 152 OFFCURVE",
"268 152 CURVE SMOOTH",
"242 152 OFFCURVE",
"225 168 OFFCURVE",
"225 193 CURVE SMOOTH",
"225 318 LINE SMOOTH",
"225 343 OFFCURVE",
"242 359 OFFCURVE",
"268 359 CURVE SMOOTH",
"294 359 OFFCURVE",
"311 343 OFFCURVE",
"311 318 CURVE SMOOTH",
"311 289 LINE",
"208 289 LINE",
"208 236 LINE",
"522 236 LINE",
"522 262 LINE",
"520 415 OFFCURVE",
"423 508 OFFCURVE",
"267 508 CURVE SMOOTH",
"110 508 OFFCURVE",
"13 412 OFFCURVE",
"13 256 CURVE SMOOTH",
"13 247 LINE SMOOTH",
"13 89 OFFCURVE",
"109 -8 OFFCURVE",
"266 -8 CURVE SMOOTH"
);
}
);
width = 536;
},
{
associatedMasterId = "4F25946F-63AC-42D6-8D55-01CF6A99025B";
layerId = "A8631AE8-6F64-4109-B373-5711B024CF55";
name = "DemiBold {119,100}";
paths = (
{
closed = 1;
nodes = (
"381 -7 OFFCURVE",
"462 56 OFFCURVE",
"462 158 CURVE SMOOTH",
"462 159 LINE",
"349 159 LINE",
"349 155 LINE SMOOTH",
"349 115 OFFCURVE",
"310 88 OFFCURVE",
"251 88 CURVE SMOOTH",
"199 88 OFFCURVE",
"164 123 OFFCURVE",
"164 175 CURVE SMOOTH",
"164 331 LINE SMOOTH",
"164 383 OFFCURVE",
"199 418 OFFCURVE",
"251 418 CURVE SMOOTH",
"304 418 OFFCURVE",
"339 383 OFFCURVE",
"339 331 CURVE SMOOTH",
"339 285 LINE",
"152 285 LINE",
"152 211 LINE",
"462 211 LINE",
"462 301 LINE SMOOTH",
"462 429 OFFCURVE",
"382 507 OFFCURVE",
"251 507 CURVE SMOOTH",
"120 507 OFFCURVE",
"40 428 OFFCURVE",
"40 298 CURVE SMOOTH",
"40 204 LINE SMOOTH",
"40 73 OFFCURVE",
"120 -7 OFFCURVE",
"250 -7 CURVE SMOOTH"
);
}
);
width = 499;
visible = 1;
},
{
associatedMasterId = "4F25946F-63AC-42D6-8D55-01CF6A99025B";
layerId = "CC74BF32-15B1-4E75-BB5A-1121E9C29FAF";
name = "Regular{67, 100}";
paths = (
{
closed = 1;
nodes = (
"352 -6 OFFCURVE",
"422 52 OFFCURVE",
"422 146 CURVE SMOOTH",
"422 148 LINE",
"354 148 LINE",
"354 144 LINE SMOOTH",
"354 86 OFFCURVE",
"308 48 OFFCURVE",
"239 48 CURVE SMOOTH",
"169 48 OFFCURVE",
"123 94 OFFCURVE",
"123 164 CURVE SMOOTH",
"123 339 LINE SMOOTH",
"123 409 OFFCURVE",
"169 455 OFFCURVE",
"239 455 CURVE SMOOTH",
"308 455 OFFCURVE",
"354 409 OFFCURVE",
"354 339 CURVE SMOOTH",
"354 275 LINE",
"115 275 LINE",
"115 219 LINE",
"422 219 LINE",
"422 325 LINE SMOOTH",
"422 437 OFFCURVE",
"352 506 OFFCURVE",
"239 506 CURVE SMOOTH",
"125 506 OFFCURVE",
"55 437 OFFCURVE",
"55 324 CURVE SMOOTH",
"55 177 LINE SMOOTH",
"55 64 OFFCURVE",
"125 -6 OFFCURVE",
"238 -6 CURVE SMOOTH"
);
}
);
width = 473;
visible = 1;
}
);
unicode = 0065;
},
{
color = 1;
glyphname = f;
lastChange = "2016-10-15 09:40:22 +0000";
layers = (
{
layerId = "262880E7-CFE1-4BDA-902E-E24798F3240A";
paths = (
{
closed = 1;
nodes = (
"125 -1 LINE",
"125 550 LINE SMOOTH",
"125 637 OFFCURVE",
"178 690 OFFCURVE",
"264 690 CURVE",
"264 711 LINE",
"164 711 OFFCURVE",
"103 650 OFFCURVE",
"103 550 CURVE SMOOTH",
"103 -1 LINE"
);
},
{
closed = 1;
nodes = (
"234 479 LINE",
"234 500 LINE",
"34 500 LINE",
"34 479 LINE"
);
}
);
width = 268;
},
{
layerId = "4F25946F-63AC-42D6-8D55-01CF6A99025B";
paths = (
{
closed = 1;
nodes = (
"245 8 LINE",
"245 525 LINE",
"245 545 OFFCURVE",
"267 551 OFFCURVE",
"289 551 CURVE",
"289 693 LINE",
"149 700 OFFCURVE",
"60 690 OFFCURVE",
"60 549 CURVE",
"60 8 LINE"
);
},
{
closed = 1;
nodes = (
"307 326 LINE",
"307 500 LINE",
"14 500 LINE",
"14 326 LINE"
);
}
);
width = 313;
},
{
associatedMasterId = "4F25946F-63AC-42D6-8D55-01CF6A99025B";
layerId = "AF0A8C32-09C6-404E-AFE0-A8C575E5B58A";
name = "Medium{91,100}";
paths = (
{
closed = 1;
nodes = (
"179 2 LINE",
"179 550 LINE SMOOTH",
"179 622 OFFCURVE",
"223 637 OFFCURVE",
"281 637 CURVE",
"281 704 LINE",
"166 707 OFFCURVE",
"95 665 OFFCURVE",
"95 550 CURVE SMOOTH",
"95 2 LINE"
);
},
{
closed = 1;
nodes = (
"270 421 LINE",
"270 500 LINE",
"34 500 LINE",
"34 421 LINE"
);
}
);
width = 289;
}
);
unicode = 0066;
},
{
color = 1;
glyphname = g;
lastChange = "2016-10-15 09:40:22 +0000";
layers = (
{
layerId = "262880E7-CFE1-4BDA-902E-E24798F3240A";
paths = (
{
closed = 1;
nodes = (
"323 -5 OFFCURVE",
"382 56 OFFCURVE",
"382 156 CURVE SMOOTH",
"382 344 LINE SMOOTH",
"382 444 OFFCURVE",
"323 505 OFFCURVE",
"226 505 CURVE SMOOTH",
"127 505 OFFCURVE",
"67 445 OFFCURVE",
"67 346 CURVE SMOOTH",
"67 154 LINE SMOOTH",
"67 55 OFFCURVE",
"127 -5 OFFCURVE",
"226 -5 CURVE"
);
},
{
closed = 1;
nodes = (
"142 17 OFFCURVE",
"89 70 OFFCURVE",
"89 156 CURVE SMOOTH",
"89 344 LINE SMOOTH",
"89 431 OFFCURVE",
"142 484 OFFCURVE",
"228 484 CURVE SMOOTH",
"314 484 OFFCURVE",
"367 431 OFFCURVE",
"367 344 CURVE SMOOTH",
"367 156 LINE SMOOTH",
"367 70 OFFCURVE",
"314 17 OFFCURVE",
"228 17 CURVE SMOOTH"
);
},
{
closed = 1;
nodes = (
"328 -211 OFFCURVE",
"389 -150 OFFCURVE",
"389 -50 CURVE SMOOTH",
"389 500 LINE",
"367 500 LINE",
"367 -50 LINE SMOOTH",
"367 -137 OFFCURVE",
"314 -190 OFFCURVE",
"208 -190 CURVE",
"208 -211 LINE"
);
}
);
width = 469;
},
{
layerId = "4F25946F-63AC-42D6-8D55-01CF6A99025B";
paths = (
{
closed = 1;
nodes = (
"343 -7 OFFCURVE",
"425 125 OFFCURVE",
"425 220 CURVE SMOOTH",
"425 234 LINE SMOOTH",
"425 245 OFFCURVE",
"413 503 OFFCURVE",
"218 503 CURVE",
"105 503 OFFCURVE",
"26 444 OFFCURVE",
"26 350 CURVE SMOOTH",
"26 160 LINE SMOOTH",
"26 55 OFFCURVE",
"99 -2 OFFCURVE",
"195 -4 CURVE SMOOTH"
);
},
{
closed = 1;
nodes = (
"246 163 OFFCURVE",
"229 179 OFFCURVE",
"229 204 CURVE SMOOTH",
"229 296 LINE SMOOTH",
"229 321 OFFCURVE",
"246 337 OFFCURVE",
"272 337 CURVE SMOOTH",
"298 337 OFFCURVE",
"316 321 OFFCURVE",
"316 296 CURVE SMOOTH",
"316 204 LINE SMOOTH",
"316 179 OFFCURVE",
"298 163 OFFCURVE",
"272 163 CURVE SMOOTH"
);
},
{
closed = 1;
nodes = (
"461 -226 OFFCURVE",
"528 -115 OFFCURVE",
"528 34 CURVE SMOOTH",
"528 500 LINE",
"316 500 LINE",
"316 34 LINE SMOOTH",
"316 -14 OFFCURVE",
"299 -44 OFFCURVE",
"155 -36 CURVE",
"155 -207 LINE"
);
}
);
width = 570;
},
{
associatedMasterId = "4F25946F-63AC-42D6-8D55-01CF6A99025B";
layerId = "B6BF2724-269E-425D-BD22-36C93A6CFDCE";
name = "Medium {91, 100}";
paths = (
{
closed = 1;
nodes = (
"342 -6 OFFCURVE",
"410 74 OFFCURVE",
"410 192 CURVE SMOOTH",
"410 292 LINE SMOOTH",
"410 375 OFFCURVE",
"372 504 OFFCURVE",
"230 504 CURVE SMOOTH",
"133 504 OFFCURVE",
"53 445 OFFCURVE",
"53 348 CURVE SMOOTH",
"53 156 LINE SMOOTH",
"53 55 OFFCURVE",
"128 -4 OFFCURVE",
"226 -5 CURVE"
);
},
{
closed = 1;
nodes = (
"183 72 OFFCURVE",
"144 111 OFFCURVE",
"144 174 CURVE SMOOTH",
"144 326 LINE SMOOTH",
"144 389 OFFCURVE",
"183 428 OFFCURVE",
"247 428 CURVE SMOOTH",
"310 428 OFFCURVE",
"350 389 OFFCURVE",
"350 326 CURVE SMOOTH",
"350 174 LINE SMOOTH",
"350 111 OFFCURVE",
"310 72 OFFCURVE",
"247 72 CURVE SMOOTH"
);
},
{
closed = 1;
nodes = (
"380 -217 OFFCURVE",
"444 -137 OFFCURVE",
"444 -18 CURVE SMOOTH",
"444 500 LINE",
"350 500 LINE",
"350 -18 LINE SMOOTH",
"350 -90 OFFCURVE",
"310 -135 OFFCURVE",
"190 -131 CURVE",
"190 -209 LINE"
);
}
);
width = 509;
}
);
unicode = 0067;
},
{
color = 1;
glyphname = h;
lastChange = "2016-10-15 09:40:23 +0000";
layers = (
{
layerId = "262880E7-CFE1-4BDA-902E-E24798F3240A";
paths = (
{
closed = 1;
nodes = (
"402 0 LINE",
"402 346 LINE SMOOTH",
"402 446 OFFCURVE",
"340 505 OFFCURVE",
"243 505 CURVE SMOOTH",
"145 505 OFFCURVE",
"86 444 OFFCURVE",
"86 344 CURVE",
"102 344 LINE",
"102 431 OFFCURVE",
"156 484 OFFCURVE",
"241 484 CURVE SMOOTH",
"326 484 OFFCURVE",
"380 431 OFFCURVE",
"380 344 CURVE SMOOTH",
"380 0 LINE"
);
},
{
closed = 1;
nodes = (
"102 0 LINE",
"102 700 LINE",
"80 700 LINE",
"80 0 LINE"
);
}
);
width = 476;
},
{
layerId = "4F25946F-63AC-42D6-8D55-01CF6A99025B";
paths = (
{
closed = 1;
nodes = (
"544 0 LINE",
"544 350 LINE SMOOTH",
"544 441 OFFCURVE",
"493 510 OFFCURVE",
"377 510 CURVE SMOOTH",
"228 510 OFFCURVE",
"185 396 OFFCURVE",
"185 294 CURVE",
"250 294 LINE",
"250 321 OFFCURVE",
"267 339 OFFCURVE",
"293 339 CURVE SMOOTH",
"319 339 OFFCURVE",
"337 321 OFFCURVE",
"337 294 CURVE SMOOTH",
"337 0 LINE"
);
},
{
closed = 1;
nodes = (
"250 0 LINE",
"250 700 LINE",
"42 700 LINE",
"42 0 LINE"
);
}
);
width = 579;
},
{
associatedMasterId = "4F25946F-63AC-42D6-8D55-01CF6A99025B";
layerId = "6DA8EE20-322F-490D-912C-EA80E03ECB77";
name = "Medium {91, 100}";
paths = (
{
closed = 1;
nodes = (
"454 0 LINE",
"454 348 LINE SMOOTH",
"454 444 OFFCURVE",
"394 507 OFFCURVE",
"286 507 CURVE SMOOTH",
"173 507 OFFCURVE",
"112 437 OFFCURVE",
"112 326 CURVE",
"156 326 LINE",
"156 390 OFFCURVE",
"196 430 OFFCURVE",
"258 430 CURVE SMOOTH",
"321 430 OFFCURVE",
"361 390 OFFCURVE",
"361 326 CURVE SMOOTH",
"361 0 LINE"
);
},
{
closed = 1;
nodes = (
"156 0 LINE",
"156 700 LINE",
"63 700 LINE",
"63 0 LINE"
);
}
);
width = 511;
}
);
unicode = 0068;
},
{
color = 1;
glyphname = i;
lastChange = "2016-10-15 09:40:23 +0000";
layers = (
{
layerId = "262880E7-CFE1-4BDA-902E-E24798F3240A";
paths = (
{
closed = 1;
nodes = (
"102 -1 LINE",
"102 500 LINE",
"80 500 LINE",
"80 -1 LINE"
);
},
{
closed = 1;
nodes = (
"113 659 OFFCURVE",
"132 677 OFFCURVE",
"132 700 CURVE SMOOTH",
"132 722 OFFCURVE",
"113 740 OFFCURVE",
"91 740 CURVE SMOOTH",
"69 740 OFFCURVE",
"50 722 OFFCURVE",
"50 700 CURVE SMOOTH",
"50 677 OFFCURVE",
"68 659 OFFCURVE",
"91 659 CURVE SMOOTH"
);
}
);
width = 182;
},
{
layerId = "4F25946F-63AC-42D6-8D55-01CF6A99025B";
paths = (
{
closed = 1;
nodes = (
"250 0 LINE",
"250 500 LINE",
"42 500 LINE",
"42 0 LINE"
);
},
{
closed = 1;
nodes = (
"207 547 OFFCURVE",
"260 591 OFFCURVE",
"260 656 CURVE",
"260 715 OFFCURVE",
"207 763 OFFCURVE",
"146 763 CURVE SMOOTH",
"85 763 OFFCURVE",
"32 715 OFFCURVE",
"32 656 CURVE SMOOTH",
"32 595 OFFCURVE",
"83 547 OFFCURVE",
"146 547 CURVE SMOOTH"
);
}
);
width = 292;
}
);
unicode = 0069;
},
{
color = 1;
glyphname = j;
lastChange = "2016-10-15 09:40:22 +0000";
layers = (
{
layerId = "262880E7-CFE1-4BDA-902E-E24798F3240A";
paths = (
{
closed = 1;
nodes = (
"50 -211 OFFCURVE",
"102 -159 OFFCURVE",
"102 -74 CURVE SMOOTH",
"102 500 LINE",
"80 500 LINE",
"80 -74 LINE SMOOTH",
"80 -146 OFFCURVE",
"37 -190 OFFCURVE",
"-34 -190 CURVE",
"-34 -211 LINE"
);
},
{
closed = 1;
nodes = (
"116 659 OFFCURVE",
"132 675 OFFCURVE",
"132 700 CURVE SMOOTH",
"132 725 OFFCURVE",
"116 740 OFFCURVE",
"91 740 CURVE SMOOTH",
"66 740 OFFCURVE",
"50 725 OFFCURVE",
"50 700 CURVE SMOOTH",
"50 675 OFFCURVE",
"66 659 OFFCURVE",
"91 659 CURVE SMOOTH"
);
}
);
width = 182;
},
{
layerId = "4F25946F-63AC-42D6-8D55-01CF6A99025B";
paths = (
{
closed = 1;
nodes = (
"138 -236 OFFCURVE",
"251 -200 OFFCURVE",
"250 -39 CURVE",
"250 500 LINE",
"42 500 LINE",
"42 -8 LINE",
"42 -40 OFFCURVE",
"-12 -39 OFFCURVE",
"-45 -26 CURVE",
"-55 -201 LINE"
);
},
{
closed = 1;
nodes = (
"208 547 OFFCURVE",
"260 595 OFFCURVE",
"260 656 CURVE",
"260 715 OFFCURVE",
"208 763 OFFCURVE",
"146 763 CURVE SMOOTH",
"85 763 OFFCURVE",
"32 715 OFFCURVE",
"32 656 CURVE SMOOTH",
"32 595 OFFCURVE",
"83 547 OFFCURVE",
"146 547 CURVE SMOOTH"
);
}
);
width = 292;
}
);
unicode = 006A;
},
{
color = 1;
glyphname = k;
lastChange = "2016-10-15 09:40:23 +0000";
layers = (
{
layerId = "262880E7-CFE1-4BDA-902E-E24798F3240A";
paths = (
{
closed = 1;
nodes = (
"360 0 LINE",
"114 250 LINE",
"362 500 LINE",
"331 500 LINE",
"82 250 LINE",
"329 0 LINE"
);
},
{
closed = 1;
nodes = (
"102 1 LINE",
"103 700 LINE",
"81 700 LINE",
"80 1 LINE"
);
}
);
width = 398;
},
{
layerId = "4F25946F-63AC-42D6-8D55-01CF6A99025B";
paths = (
{
closed = 1;
nodes = (
"552 0 LINE",
"370 250 LINE",
"562 500 LINE",
"330 500 LINE",
"186 256 LINE",
"316 0 LINE"
);
},
{
closed = 1;
nodes = (
"230 0 LINE",
"231 700 LINE",
"43 700 LINE",
"42 0 LINE"
);
}
);
width = 554;
},
{
associatedMasterId = "4F25946F-63AC-42D6-8D55-01CF6A99025B";
layerId = "67D1648E-BAA1-4D62-B90C-A94E0FCB7E5A";
name = "DemiBold{119,100}";
paths = (
{
closed = 1;
nodes = (
"473 0 LINE",
"271 250 LINE",
"488 500 LINE",
"338 500 LINE",
"130 250 LINE",
"322 0 LINE"
);
},
{
closed = 1;
nodes = (
"178 0 LINE",
"179 700 LINE",
"58 700 LINE",
"57 0 LINE"
);
}
);
width = 490;
}
);
unicode = 006B;
},
{
color = 1;
glyphname = l;
lastChange = "2016-10-15 09:40:23 +0000";
layers = (
{
layerId = "262880E7-CFE1-4BDA-902E-E24798F3240A";
paths = (
{
closed = 1;
nodes = (
"102 -1 LINE",
"102 700 LINE",
"80 700 LINE",
"80 -1 LINE"
);
}
);
width = 182;
},
{
layerId = "4F25946F-63AC-42D6-8D55-01CF6A99025B";
paths = (
{
closed = 1;
nodes = (
"250 0 LINE",
"250 700 LINE",
"42 700 LINE",
"42 0 LINE"
);
}
);
width = 292;
}
);
unicode = 006C;
},
{
color = 1;
glyphname = m;
lastChange = "2016-10-15 09:40:23 +0000";
layers = (
{
layerId = "262880E7-CFE1-4BDA-902E-E24798F3240A";
paths = (
{
closed = 1;
nodes = (
"102 0 LINE",
"102 500 LINE",
"80 500 LINE",
"80 0 LINE"
);
},
{
closed = 1;
nodes = (
"392 0 LINE",
"392 345 LINE",
"392 445 OFFCURVE",
"331 506 OFFCURVE",
"237 506 CURVE SMOOTH",
"142 506 OFFCURVE",
"87 445 OFFCURVE",
"87 345 CURVE",
"102 345 LINE",
"102 432 OFFCURVE",
"153 485 OFFCURVE",
"236 485 CURVE SMOOTH",
"319 485 OFFCURVE",
"370 432 OFFCURVE",
"370 345 CURVE",
"370 0 LINE"
);
},
{
closed = 1;
nodes = (
"682 0 LINE",
"682 345 LINE SMOOTH",
"682 445 OFFCURVE",
"621 506 OFFCURVE",
"527 506 CURVE SMOOTH",
"432 506 OFFCURVE",
"377 445 OFFCURVE",
"377 345 CURVE",
"392 345 LINE",
"392 432 OFFCURVE",
"443 485 OFFCURVE",
"526 485 CURVE SMOOTH",
"609 485 OFFCURVE",
"660 432 OFFCURVE",
"660 345 CURVE SMOOTH",
"660 0 LINE"
);
}
);
width = 756;
},
{
layerId = "4F25946F-63AC-42D6-8D55-01CF6A99025B";
paths = (
{
closed = 1;
nodes = (
"250 0 LINE",
"250 500 LINE",
"42 500 LINE",
"42 0 LINE"
);
},
{
closed = 1;
nodes = (
"544 0 LINE",
"544 350 LINE SMOOTH",
"544 441 OFFCURVE",
"499 502 OFFCURVE",
"382 502 CURVE",
"234 502 OFFCURVE",
"185 387 OFFCURVE",
"185 286 CURVE",
"250 294 LINE",
"250 321 OFFCURVE",
"267 339 OFFCURVE",
"293 339 CURVE SMOOTH",
"319 339 OFFCURVE",
"337 321 OFFCURVE",
"337 294 CURVE SMOOTH",
"337 0 LINE"
);
},
{
closed = 1;
nodes = (
"838 0 LINE",
"838 350 LINE SMOOTH",
"838 441 OFFCURVE",
"790 502 OFFCURVE",
"672 502 CURVE",
"528 502 OFFCURVE",
"479 387 OFFCURVE",
"479 286 CURVE",
"544 294 LINE",
"544 321 OFFCURVE",
"561 339 OFFCURVE",
"587 339 CURVE SMOOTH",
"613 339 OFFCURVE",
"631 321 OFFCURVE",
"631 294 CURVE SMOOTH",
"631 0 LINE"
);
}
);
width = 873;
},
{
associatedMasterId = "4F25946F-63AC-42D6-8D55-01CF6A99025B";
layerId = "F5ED04A7-6D5C-4CB3-8E75-4B337E8B4478";
name = "Medium {91, 100}";
paths = (
{
closed = 1;
nodes = (
"158 0 LINE",
"158 500 LINE",
"66 500 LINE",
"66 0 LINE"
);
},
{
closed = 1;
nodes = (
"442 0 LINE",
"442 350 LINE SMOOTH",
"442 447 OFFCURVE",
"390.006 510 OFFCURVE",
"289 510 CURVE SMOOTH",
"177 510 OFFCURVE",
"120 440 OFFCURVE",
"120 336 CURVE",
"158 336 LINE",
"158 396 OFFCURVE",
"195 433 OFFCURVE",
"254 433 CURVE SMOOTH",
"313 433 OFFCURVE",
"350 396 OFFCURVE",
"350 336 CURVE SMOOTH",
"350 0 LINE"
);
},
{
closed = 1;
nodes = (
"726 0 LINE",
"726 350 LINE SMOOTH",
"726 447 OFFCURVE",
"674 510 OFFCURVE",
"573 510 CURVE SMOOTH",
"461 510 OFFCURVE",
"404 440 OFFCURVE",
"404 336 CURVE",
"442 336 LINE",
"442 396 OFFCURVE",
"479 433 OFFCURVE",
"538 433 CURVE SMOOTH",
"597 433 OFFCURVE",
"634 396 OFFCURVE",
"634 336 CURVE SMOOTH",
"634 0 LINE"
);
}
);
width = 773;
}
);
unicode = 006D;
},
{
color = 1;
glyphname = n;
lastChange = "2016-10-15 09:40:22 +0000";
layers = (
{
layerId = "262880E7-CFE1-4BDA-902E-E24798F3240A";
paths = (
{
closed = 1;
nodes = (
"402 0 LINE",
"402 344 LINE SMOOTH",
"402 444 OFFCURVE",
"341 504 OFFCURVE",
"242 504 CURVE SMOOTH",
"146 504 OFFCURVE",
"87 443 OFFCURVE",
"87 343 CURVE",
"102 343 LINE",
"102 430 OFFCURVE",
"155 483 OFFCURVE",
"241 483 CURVE SMOOTH",
"327 483 OFFCURVE",
"380 430 OFFCURVE",
"380 343 CURVE SMOOTH",
"380 0 LINE"
);
},
{
closed = 1;
nodes = (
"102 0 LINE",
"102 496 LINE",
"80 496 LINE",
"80 0 LINE"
);
}
);
width = 476;
},
{
layerId = "4F25946F-63AC-42D6-8D55-01CF6A99025B";
paths = (
{
closed = 1;
nodes = (
"544 0 LINE",
"544 350 LINE SMOOTH",
"544 441 OFFCURVE",
"499 502 OFFCURVE",
"382 502 CURVE",
"234 502 OFFCURVE",
"185 387 OFFCURVE",
"185 286 CURVE",
"250 294 LINE",
"250 321 OFFCURVE",
"267 339 OFFCURVE",
"293 339 CURVE SMOOTH",
"319 339 OFFCURVE",
"337 321 OFFCURVE",
"337 294 CURVE SMOOTH",
"337 0 LINE"
);
},
{
closed = 1;
nodes = (
"250 0 LINE",
"250 500 LINE",
"42 500 LINE",
"42 0 LINE"
);
}
);
width = 580;
},
{
associatedMasterId = "4F25946F-63AC-42D6-8D55-01CF6A99025B";
layerId = "48EED9EC-BBC9-457D-A249-2E4341C899C3";
name = "Medium {91, 100}";
paths = (
{
closed = 1;
nodes = (
"454 0 LINE",
"454 346 LINE SMOOTH",
"454 443 OFFCURVE",
"393 506 OFFCURVE",
"289 506 CURVE SMOOTH",
"171 506 OFFCURVE",
"103 425 OFFCURVE",
"103 325 CURVE",
"156 325 LINE",
"156 389 OFFCURVE",
"195 429 OFFCURVE",
"258 429 CURVE SMOOTH",
"322 429 OFFCURVE",
"361 389 OFFCURVE",
"361 325 CURVE SMOOTH",
"361 0 LINE"
);
},
{
closed = 1;
nodes = (
"156 0 LINE",
"156 498 LINE",
"63 498 LINE",
"63 0 LINE"
);
}
);
width = 511;
}
);
unicode = 006E;
},
{
color = 1;
glyphname = o;
lastChange = "2016-10-15 09:40:23 +0000";
layers = (
{
layerId = "262880E7-CFE1-4BDA-902E-E24798F3240A";
paths = (
{
closed = 1;
nodes = (
"328 -5 OFFCURVE",
"389 56 OFFCURVE",
"389 156 CURVE SMOOTH",
"389 344 LINE SMOOTH",
"389 444 OFFCURVE",
"328 505 OFFCURVE",
"228 505 CURVE SMOOTH",
"128 505 OFFCURVE",
"67 444 OFFCURVE",
"67 344 CURVE SMOOTH",
"67 156 LINE SMOOTH",
"67 56 OFFCURVE",
"128 -5 OFFCURVE",
"228 -5 CURVE SMOOTH"
);
},
{
closed = 1;
nodes = (
"142 17 OFFCURVE",
"89 70 OFFCURVE",
"89 156 CURVE SMOOTH",
"89 344 LINE SMOOTH",
"89 431 OFFCURVE",
"142 484 OFFCURVE",
"228 484 CURVE SMOOTH",
"314 484 OFFCURVE",
"367 431 OFFCURVE",
"367 344 CURVE SMOOTH",
"367 156 LINE SMOOTH",
"367 70 OFFCURVE",
"314 17 OFFCURVE",
"228 17 CURVE SMOOTH"
);
}
);
width = 456;
},
{
layerId = "4F25946F-63AC-42D6-8D55-01CF6A99025B";
paths = (
{
closed = 1;
nodes = (
"426 -8 OFFCURVE",
"523 89 OFFCURVE",
"523 247 CURVE",
"523 256 LINE",
"521 412 OFFCURVE",
"424 508 OFFCURVE",
"267 508 CURVE",
"110 508 OFFCURVE",
"13 412 OFFCURVE",
"13 256 CURVE",
"13 247 LINE",
"14 89 OFFCURVE",
"111 -8 OFFCURVE",
"267 -8 CURVE SMOOTH"
);
},
{
closed = 1;
nodes = (
"241 163 OFFCURVE",
"224 179 OFFCURVE",
"224 204 CURVE SMOOTH",
"224 296 LINE SMOOTH",
"224 321 OFFCURVE",
"241 337 OFFCURVE",
"267 337 CURVE SMOOTH",
"293 337 OFFCURVE",
"311 321 OFFCURVE",
"311 296 CURVE SMOOTH",
"311 204 LINE SMOOTH",
"311 179 OFFCURVE",
"293 163 OFFCURVE",
"267 163 CURVE SMOOTH"
);
}
);
width = 536;
}
);
unicode = 006F;
},
{
color = 1;
glyphname = p;
lastChange = "2016-10-15 09:40:23 +0000";
layers = (
{
layerId = "262880E7-CFE1-4BDA-902E-E24798F3240A";
paths = (
{
closed = 1;
nodes = (
"342 -7 OFFCURVE",
"402 54 OFFCURVE",
"402 154 CURVE SMOOTH",
"402 346 LINE SMOOTH",
"402 446 OFFCURVE",
"342 507 OFFCURVE",
"244 507 CURVE SMOOTH",
"146 507 OFFCURVE",
"82 444 OFFCURVE",
"82 344 CURVE SMOOTH",
"82 156 LINE SMOOTH",
"82 56 OFFCURVE",
"146 -7 OFFCURVE",
"244 -7 CURVE SMOOTH"
);
},
{
closed = 1;
nodes = (
"102 -200 LINE",
"102 500 LINE",
"80 500 LINE",
"80 -200 LINE"
);
},
{
closed = 1;
nodes = (
"155 14 OFFCURVE",
"102 67 OFFCURVE",
"102 154 CURVE SMOOTH",
"102 346 LINE SMOOTH",
"102 432 OFFCURVE",
"155 485 OFFCURVE",
"241 485 CURVE SMOOTH",
"327 485 OFFCURVE",
"380 432 OFFCURVE",
"380 346 CURVE SMOOTH",
"380 154 LINE SMOOTH",
"380 67 OFFCURVE",
"327 14 OFFCURVE",
"241 14 CURVE SMOOTH"
);
}
);
width = 470;
},
{
layerId = "4F25946F-63AC-42D6-8D55-01CF6A99025B";
paths = (
{
closed = 1;
nodes = (
"480 -4 OFFCURVE",
"544 52 OFFCURVE",
"544 157 CURVE SMOOTH",
"544 347 LINE SMOOTH",
"544 441 OFFCURVE",
"469 504 OFFCURVE",
"356 504 CURVE",
"161 504 OFFCURVE",
"145 242 OFFCURVE",
"145 231 CURVE SMOOTH",
"145 217 LINE SMOOTH",
"145 117 OFFCURVE",
"236 -12 OFFCURVE",
"384 -7 CURVE SMOOTH"
);
},
{
closed = 1;
nodes = (
"250 -200 LINE",
"250 502 LINE",
"42 502 LINE",
"42 -200 LINE"
);
},
{
closed = 1;
nodes = (
"267 158 OFFCURVE",
"250 174 OFFCURVE",
"250 199 CURVE SMOOTH",
"250 291 LINE SMOOTH",
"250 316 OFFCURVE",
"267 332 OFFCURVE",
"293 332 CURVE SMOOTH",
"319 332 OFFCURVE",
"337 316 OFFCURVE",
"337 291 CURVE SMOOTH",
"337 199 LINE SMOOTH",
"337 174 OFFCURVE",
"319 158 OFFCURVE",
"293 158 CURVE SMOOTH"
);
}
);
width = 570;
}
);
unicode = 0070;
},
{
color = 1;
glyphname = r;
lastChange = "2016-10-15 09:40:23 +0000";
layers = (
{
layerId = "262880E7-CFE1-4BDA-902E-E24798F3240A";
paths = (
{
closed = 1;
nodes = (
"102 331 LINE",
"102 418 OFFCURVE",
"152 483 OFFCURVE",
"234 483 CURVE SMOOTH",
"244 483 OFFCURVE",
"261 479 OFFCURVE",
"270 475 CURVE",
"287 488 LINE",
"273 496 OFFCURVE",
"253 502 OFFCURVE",
"234 502 CURVE SMOOTH",
"139 502 OFFCURVE",
"86 429 OFFCURVE",
"86 331 CURVE"
);
},
{
closed = 1;
nodes = (
"102 -1 LINE",
"102 500 LINE",
"80 500 LINE",
"80 -1 LINE"
);
}
);
width = 321;
},
{
layerId = "4F25946F-63AC-42D6-8D55-01CF6A99025B";
paths = (
{
closed = 1;
nodes = (
"250 268 LINE",
"250 302 OFFCURVE",
"289 317 OFFCURVE",
"326 317 CURVE SMOOTH",
"344 317 OFFCURVE",
"379 310 OFFCURVE",
"384 301 CURVE",
"426 464 LINE",
"422 486 OFFCURVE",
"398 505 OFFCURVE",
"355 505 CURVE SMOOTH",
"240 505 OFFCURVE",
"186 382 OFFCURVE",
"186 268 CURVE"
);
},
{
closed = 1;
nodes = (
"250 0 LINE",
"250 500 LINE",
"42 500 LINE",
"42 0 LINE"
);
}
);
width = 425;
},
{
associatedMasterId = "262880E7-CFE1-4BDA-902E-E24798F3240A";
layerId = "42CC11FC-6CFD-42F7-A362-E84ACC39CCA1";
name = "Medium{91,100}";
paths = (
{
closed = 1;
nodes = (
"158 307 LINE",
"158 374 OFFCURVE",
"204 420 OFFCURVE",
"269 420 CURVE SMOOTH",
"282 420 OFFCURVE",
"306 415 OFFCURVE",
"313 409 CURVE",
"340 479 LINE",
"330 492 OFFCURVE",
"308 503 OFFCURVE",
"280 503 CURVE SMOOTH",
"177 503 OFFCURVE",
"104 411 OFFCURVE",
"104 307 CURVE"
);
},
{
closed = 1;
nodes = (
"158 -1 LINE",
"158 500 LINE",
"66 500 LINE",
"66 -1 LINE"
);
}
);
width = 361;
}
);
unicode = 0072;
},
{
color = 1;
glyphname = s;
lastChange = "2016-10-15 09:40:23 +0000";
layers = (
{
layerId = "262880E7-CFE1-4BDA-902E-E24798F3240A";
paths = (
{
closed = 1;
nodes = (
"311 -3 OFFCURVE",
"378 47 OFFCURVE",
"378 126 CURVE SMOOTH",
"378 214 OFFCURVE",
"294 237 OFFCURVE",
"214 265 CURVE SMOOTH",
"125 296 OFFCURVE",
"76 311 OFFCURVE",
"76 372 CURVE SMOOTH",
"76 437 OFFCURVE",
"132 484 OFFCURVE",
"215 484 CURVE SMOOTH",
"298 484 OFFCURVE",
"354 438 OFFCURVE",
"354 369 CURVE SMOOTH",
"354 368 LINE",
"376 368 LINE",
"376 369 LINE SMOOTH",
"376 451 OFFCURVE",
"312 503 OFFCURVE",
"215 503 CURVE SMOOTH",
"118 503 OFFCURVE",
"54 450 OFFCURVE",
"54 372 CURVE SMOOTH",
"54 290 OFFCURVE",
"125 271 OFFCURVE",
"210 241 CURVE SMOOTH",
"286 214 OFFCURVE",
"356 196 OFFCURVE",
"356 126 CURVE SMOOTH",
"356 61 OFFCURVE",
"297 17 OFFCURVE",
"213 17 CURVE SMOOTH",
"129 17 OFFCURVE",
"74 60 OFFCURVE",
"74 126 CURVE SMOOTH",
"74 127 LINE",
"52 127 LINE",
"52 126 LINE SMOOTH",
"52 48 OFFCURVE",
"115 -3 OFFCURVE",
"213 -3 CURVE SMOOTH"
);
}
);
width = 430;
},
{
layerId = "4F25946F-63AC-42D6-8D55-01CF6A99025B";
paths = (
{
closed = 1;
nodes = (
"404 -10 OFFCURVE",
"489 62 OFFCURVE",
"489 151 CURVE SMOOTH",
"489 216 OFFCURVE",
"444 270 OFFCURVE",
"353 296 CURVE SMOOTH",
"293 313 OFFCURVE",
"217 318 OFFCURVE",
"217 351 CURVE SMOOTH",
"217 364 OFFCURVE",
"230 378 OFFCURVE",
"250 378 CURVE SMOOTH",
"270 378 OFFCURVE",
"286 364 OFFCURVE",
"286 341 CURVE",
"287 331 LINE",
"481 331 LINE",
"481 341 LINE",
"477 439 OFFCURVE",
"392 510 OFFCURVE",
"246 510 CURVE SMOOTH",
"98 510 OFFCURVE",
"14 437 OFFCURVE",
"14 353 CURVE SMOOTH",
"14 292 OFFCURVE",
"58 235 OFFCURVE",
"152 208 CURVE SMOOTH",
"208 192 OFFCURVE",
"280 187 OFFCURVE",
"280 149 CURVE SMOOTH",
"280 136 OFFCURVE",
"272 123 OFFCURVE",
"250 123 CURVE SMOOTH",
"231 123 OFFCURVE",
"216 133 OFFCURVE",
"212 155 CURVE SMOOTH",
"209 172 LINE",
"13 172 LINE",
"13 162 LINE",
"13 66 OFFCURVE",
"104 -10 OFFCURVE",
"256 -10 CURVE SMOOTH"
);
}
);
width = 500;
},
{
associatedMasterId = "262880E7-CFE1-4BDA-902E-E24798F3240A";
layerId = "677A5083-0B4E-4805-9AE1-F115960A3564";
name = "Semi Bold{101, 100}";
paths = (
{
closed = 1;
nodes = (
"337 -10 OFFCURVE",
"408 51 OFFCURVE",
"408 137 CURVE SMOOTH",
"408 213 OFFCURVE",
"353 258 OFFCURVE",
"269 286 CURVE SMOOTH",
"210 306 OFFCURVE",
"142 313 OFFCURVE",
"142 363 CURVE SMOOTH",
"142 395 OFFCURVE",
"171 424 OFFCURVE",
"218 424 CURVE SMOOTH",
"263 424 OFFCURVE",
"295 399 OFFCURVE",
"296 358 CURVE SMOOTH",
"296 352 LINE",
"403 352 LINE",
"403 358 LINE SMOOTH",
"403 446 OFFCURVE",
"332 510 OFFCURVE",
"217 510 CURVE SMOOTH",
"102 510 OFFCURVE",
"33 447 OFFCURVE",
"33 363 CURVE SMOOTH",
"33 291 OFFCURVE",
"85 248 OFFCURVE",
"169 219 CURVE SMOOTH",
"227 199 OFFCURVE",
"295 189 OFFCURVE",
"295 137 CURVE SMOOTH",
"295 100 OFFCURVE",
"262 75 OFFCURVE",
"217 75 CURVE SMOOTH",
"171 75 OFFCURVE",
"141 100 OFFCURVE",
"141 137 CURVE SMOOTH",
"141 146 LINE",
"31 146 LINE",
"31 141 LINE SMOOTH",
"31 54 OFFCURVE",
"104 -10 OFFCURVE",
"222 -10 CURVE SMOOTH"
);
}
);
width = 439;
}
);
unicode = 0073;
},
{
color = 1;
glyphname = t;
lastChange = "2016-10-15 09:40:22 +0000";
layers = (
{
layerId = "262880E7-CFE1-4BDA-902E-E24798F3240A";
paths = (
{
closed = 1;
nodes = (
"248 2 LINE",
"248 24 LINE",
"224 24 LINE SMOOTH",
"143 24 OFFCURVE",
"120 59 OFFCURVE",
"120 155 CURVE SMOOTH",
"120 479 LINE",
"234 479 LINE",
"234 500 LINE",
"120 500 LINE",
"120 610 LINE",
"98 610 LINE",
"98 500 LINE",
"34 500 LINE",
"34 479 LINE",
"98 479 LINE",
"98 155 LINE SMOOTH",
"98 45 OFFCURVE",
"130 2 OFFCURVE",
"224 2 CURVE SMOOTH"
);
}
);
width = 285;
},
{
layerId = "4F25946F-63AC-42D6-8D55-01CF6A99025B";
paths = (
{
closed = 1;
nodes = (
"307 1 LINE",
"313 181 LINE",
"310 181 LINE",
"272 177 OFFCURVE",
"250 172 OFFCURVE",
"250 203 CURVE SMOOTH",
"250 326 LINE",
"330 326 LINE",
"330 500 LINE",
"250 500 LINE",
"250 700 LINE",
"56 700 LINE",
"56 500 LINE",
"12 500 LINE",
"12 326 LINE",
"56 326 LINE",
"56 163 LINE SMOOTH",
"56 3 OFFCURVE",
"119 -24 OFFCURVE",
"301 1 CURVE"
);
}
);
width = 351;
}
);
unicode = 0074;
},
{
color = 1;
glyphname = u;
lastChange = "2016-10-15 09:40:22 +0000";
layers = (
{
layerId = "262880E7-CFE1-4BDA-902E-E24798F3240A";
paths = (
{
closed = 1;
nodes = (
"332 -3 OFFCURVE",
"391 58 OFFCURVE",
"391 157 CURVE",
"374 157 LINE",
"374 70 OFFCURVE",
"321 17 OFFCURVE",
"235 17 CURVE SMOOTH",
"149 17 OFFCURVE",
"96 70 OFFCURVE",
"96 157 CURVE SMOOTH",
"96 500 LINE",
"74 500 LINE",
"74 156 LINE SMOOTH",
"74 57 OFFCURVE",
"135 -3 OFFCURVE",
"235 -3 CURVE SMOOTH"
);
},
{
closed = 1;
nodes = (
"396 0 LINE",
"396 500 LINE",
"374 500 LINE",
"374 0 LINE"
);
}
);
width = 476;
},
{
layerId = "4F25946F-63AC-42D6-8D55-01CF6A99025B";
paths = (
{
closed = 1;
nodes = (
"349 -2 OFFCURVE",
"396 96 OFFCURVE",
"396 196 CURVE",
"331 188 LINE",
"331 165 OFFCURVE",
"313 150 OFFCURVE",
"287 150 CURVE SMOOTH",
"261 150 OFFCURVE",
"244 165 OFFCURVE",
"244 188 CURVE SMOOTH",
"244 500 LINE",
"36 500 LINE",
"36 150 LINE SMOOTH",
"36 49 OFFCURVE",
"85 -2 OFFCURVE",
"196 -2 CURVE SMOOTH"
);
},
{
closed = 1;
nodes = (
"538 0 LINE",
"538 500 LINE",
"331 500 LINE",
"331 0 LINE"
);
}
);
width = 580;
},
{
associatedMasterId = "4F25946F-63AC-42D6-8D55-01CF6A99025B";
layerId = "47FA07B0-C6A0-4AEE-ADEB-F55ADBF433D4";
name = "Medium{91,100}";
paths = (
{
closed = 1;
nodes = (
"338 -6 OFFCURVE",
"402 64 OFFCURVE",
"402 168 CURVE",
"356 168 LINE",
"356 107 OFFCURVE",
"315 67 OFFCURVE",
"253 67 CURVE SMOOTH",
"192 67 OFFCURVE",
"151 107 OFFCURVE",
"151 168 CURVE SMOOTH",
"151 500 LINE",
"58 500 LINE",
"58 154 LINE SMOOTH",
"58 58 OFFCURVE",
"132 -6 OFFCURVE",
"243 -6 CURVE SMOOTH"
);
},
{
closed = 1;
nodes = (
"449 0 LINE",
"449 500 LINE",
"356 500 LINE",
"356 0 LINE"
);
}
);
width = 512;
}
);
unicode = 0075;
},
{
color = 1;
glyphname = v;
lastChange = "2016-10-15 09:40:22 +0000";
layers = (
{
layerId = "262880E7-CFE1-4BDA-902E-E24798F3240A";
paths = (
{
closed = 1;
nodes = (
"225 3 LINE",
"390 500 LINE",
"368 500 LINE",
"214 38 LINE",
"60 500 LINE",
"38 500 LINE",
"203 3 LINE"
);
}
);
width = 428;
},
{
layerId = "4F25946F-63AC-42D6-8D55-01CF6A99025B";
paths = (
{
closed = 1;
nodes = (
"350 0 LINE",
"514 500 LINE",
"307 500 LINE",
"254 257 LINE",
"201 500 LINE",
"-6 500 LINE",
"158 0 LINE"
);
}
);
width = 508;
},
{
associatedMasterId = "262880E7-CFE1-4BDA-902E-E24798F3240A";
layerId = "30C42329-3409-4879-A8EC-0B65B1A31C66";
name = "Medium { 91, 100}";
paths = (
{
closed = 1;
nodes = (
"266 0 LINE",
"423 500 LINE",
"330 500 LINE",
"222 129 LINE",
"114 500 LINE",
"22 500 LINE",
"179 0 LINE"
);
}
);
width = 445;
}
);
unicode = 0076;
},
{
color = 1;
glyphname = w;
lastChange = "2016-10-15 09:40:23 +0000";
layers = (
{
layerId = "262880E7-CFE1-4BDA-902E-E24798F3240A";
paths = (
{
closed = 1;
nodes = (
"197 0 LINE",
"321 458 LINE",
"445 0 LINE",
"467 0 LINE",
"602 500 LINE",
"580 500 LINE",
"456 42 LINE",
"332 500 LINE",
"310 500 LINE",
"186 42 LINE",
"62 500 LINE",
"40 500 LINE",
"175 0 LINE"
);
}
);
width = 642;
},
{
layerId = "4F25946F-63AC-42D6-8D55-01CF6A99025B";
paths = (
{
closed = 1;
nodes = (
"284 0 LINE",
"321 233 LINE",
"362 0 LINE",
"528 0 LINE",
"648 500 LINE",
"474 500 LINE",
"441 287 LINE",
"405 500 LINE",
"235 500 LINE",
"200 287 LINE",
"165 500 LINE",
"-2 500 LINE",
"117 0 LINE"
);
}
);
width = 646;
},
{
associatedMasterId = "262880E7-CFE1-4BDA-902E-E24798F3240A";
layerId = "480BA72E-C4F5-43EF-BDD2-211D62698B35";
name = "Medium {91, 100}";
paths = (
{
closed = 1;
nodes = (
"244 0 LINE",
"335 361 LINE",
"425 0 LINE",
"507 0 LINE",
"646 500 LINE",
"552 500 LINE",
"469 130 LINE",
"371 500 LINE",
"298 500 LINE",
"201 130 LINE",
"117 500 LINE",
"23 500 LINE",
"162 0 LINE"
);
}
);
width = 669;
}
);
unicode = 0077;
},
{
color = 1;
glyphname = x;
lastChange = "2016-10-15 09:54:40 +0000";
layers = (
{
layerId = "262880E7-CFE1-4BDA-902E-E24798F3240A";
paths = (
{
closed = 1;
nodes = (
"368 501 LINE",
"214 267 LINE",
"60 501 LINE",
"38 501 LINE",
"203 250 LINE",
"38 -1 LINE",
"60 -1 LINE",
"214 233 LINE",
"368 -1 LINE",
"390 -1 LINE",
"225 250 LINE",
"390 501 LINE"
);
}
);
width = 428;
},
{
layerId = "4F25946F-63AC-42D6-8D55-01CF6A99025B";
paths = (
{
closed = 1;
nodes = (
"306 500 LINE",
"261 421 LINE",
"217 500 LINE",
"-5 500 LINE",
"153 250 LINE",
"-5 0 LINE",
"217 0 LINE",
"261 79 LINE",
"306 0 LINE",
"527 0 LINE",
"370 250 LINE",
"527 500 LINE"
);
}
);
width = 522;
},
{
associatedMasterId = "262880E7-CFE1-4BDA-902E-E24798F3240A";
layerId = "A7F0FF68-370D-4ABA-A088-97B4F33DE289";
name = "Light Oct 15 16, 02:53";
paths = (
{
closed = 1;
nodes = (
"368 501 LINE",
"390 501 LINE",
"60 -1 LINE",
"38 -1 LINE"
);
},
{
closed = 1;
nodes = (
"38 501 LINE",
"60 501 LINE",
"390 -1 LINE",
"368 -1 LINE"
);
}
);
width = 428;
},
{
associatedMasterId = "4F25946F-63AC-42D6-8D55-01CF6A99025B";
layerId = "C8E6816F-D14D-432C-92C0-4654658DD355";
name = "Bold Oct 15 16, 02:53";
paths = (
{
closed = 1;
nodes = (
"306 500 LINE",
"527 500 LINE",
"217 0 LINE",
"-5 0 LINE"
);
},
{
closed = 1;
nodes = (
"-5 500 LINE",
"217 500 LINE",
"527 0 LINE",
"306 0 LINE"
);
}
);
width = 522;
}
);
unicode = 0078;
},
{
color = 1;
glyphname = y;
lastChange = "2016-10-15 09:40:23 +0000";
layers = (
{
layerId = "262880E7-CFE1-4BDA-902E-E24798F3240A";
paths = (
{
closed = 1;
nodes = (
"134 -211 OFFCURVE",
"169 -174 OFFCURVE",
"202 -73 CURVE",
"392 500 LINE",
"370 500 LINE",
"182 -67 LINE SMOOTH",
"151 -160 OFFCURVE",
"122 -190 OFFCURVE",
"66 -190 CURVE",
"66 -211 LINE"
);
},
{
closed = 1;
nodes = (
"217 28 LINE",
"60 500 LINE",
"38 500 LINE",
"206 -7 LINE"
);
}
);
width = 430;
},
{
layerId = "4F25946F-63AC-42D6-8D55-01CF6A99025B";
paths = (
{
closed = 1;
nodes = (
"203 -161 OFFCURVE",
"248 -140 OFFCURVE",
"306 16 CURVE SMOOTH",
"487 500 LINE",
"286 500 LINE",
"145 82 LINE SMOOTH",
"127 28 OFFCURVE",
"109 11 OFFCURVE",
"59 18 CURVE",
"59 -140 LINE"
);
},
{
closed = 1;
nodes = (
"310 141 LINE",
"194 500 LINE",
"-8 500 LINE",
"202 -7 LINE"
);
}
);
width = 480;
}
);
unicode = 0079;
},
{
color = 1;
glyphname = z;
lastChange = "2016-10-15 09:40:23 +0000";
layers = (
{
layerId = "262880E7-CFE1-4BDA-902E-E24798F3240A";
paths = (
{
closed = 1;
nodes = (
"355 1 LINE",
"355 23 LINE",
"76 23 LINE",
"366 499 LINE",
"46 499 LINE",
"46 478 LINE",
"328 478 LINE",
"38 1 LINE"
);
}
);
width = 403;
},
{
layerId = "4F25946F-63AC-42D6-8D55-01CF6A99025B";
paths = (
{
closed = 1;
nodes = (
"488 0 LINE",
"488 208 LINE",
"327 208 LINE",
"502 500 LINE",
"37 500 LINE",
"37 292 LINE",
"192 292 LINE",
"-3 0 LINE"
);
}
);
width = 511;
}
);
unicode = 007A;
},
{
color = 1;
glyphname = zero;
lastChange = "2016-10-15 09:40:23 +0000";
layers = (
{
layerId = "262880E7-CFE1-4BDA-902E-E24798F3240A";
paths = (
{
closed = 1;
nodes = (
"353 -9 OFFCURVE",
"408 45 OFFCURVE",
"408 150 CURVE SMOOTH",
"408 550 LINE SMOOTH",
"408 655 OFFCURVE",
"353 709 OFFCURVE",
"248 709 CURVE SMOOTH",
"143 709 OFFCURVE",
"88 655 OFFCURVE",
"88 550 CURVE SMOOTH",
"88 150 LINE SMOOTH",
"88 45 OFFCURVE",
"143 -9 OFFCURVE",
"248 -9 CURVE SMOOTH"
);
},
{
closed = 1;
nodes = (
"157 11 OFFCURVE",
"110 58 OFFCURVE",
"110 150 CURVE SMOOTH",
"110 550 LINE SMOOTH",
"110 642 OFFCURVE",
"157 690 OFFCURVE",
"248 690 CURVE SMOOTH",
"339 690 OFFCURVE",
"386 642 OFFCURVE",
"386 550 CURVE SMOOTH",
"386 150 LINE SMOOTH",
"386 58 OFFCURVE",
"339 11 OFFCURVE",
"248 11 CURVE SMOOTH"
);
}
);
width = 496;
},
{
layerId = "4F25946F-63AC-42D6-8D55-01CF6A99025B";
paths = (
{
closed = 1;
nodes = (
"464 -10 OFFCURVE",
"552 73 OFFCURVE",
"552 233 CURVE SMOOTH",
"552 467 LINE SMOOTH",
"552 627 OFFCURVE",
"464 710 OFFCURVE",
"292 710 CURVE SMOOTH",
"120 710 OFFCURVE",
"32 627 OFFCURVE",
"32 467 CURVE SMOOTH",
"32 233 LINE SMOOTH",
"32 73 OFFCURVE",
"120 -10 OFFCURVE",
"292 -10 CURVE SMOOTH"
);
},
{
closed = 1;
nodes = (
"263 174 OFFCURVE",
"244 194 OFFCURVE",
"244 223 CURVE SMOOTH",
"244 477 LINE SMOOTH",
"244 506 OFFCURVE",
"263 526 OFFCURVE",
"292 526 CURVE SMOOTH",
"321 526 OFFCURVE",
"340 506 OFFCURVE",
"340 477 CURVE SMOOTH",
"340 223 LINE SMOOTH",
"340 194 OFFCURVE",
"321 174 OFFCURVE",
"292 174 CURVE SMOOTH"
);
}
);
width = 584;
}
);
unicode = 0030;
},
{
color = 1;
glyphname = one;
lastChange = "2016-10-15 09:40:22 +0000";
layers = (
{
layerId = "4F25946F-63AC-42D6-8D55-01CF6A99025B";
paths = (
{
closed = 1;
nodes = (
"283 0 LINE",
"283 700 LINE",
"71 700 LINE",
"71 0 LINE"
);
},
{
closed = 1;
nodes = (
"8 512 LINE",
"71 512 LINE",
"71 700 LINE",
"8 674 LINE"
);
}
);
width = 334;
},
{
layerId = "262880E7-CFE1-4BDA-902E-E24798F3240A";
paths = (
{
closed = 1;
nodes = (
"121 0 LINE",
"121 700 LINE",
"99 700 LINE",
"99 0 LINE"
);
},
{
closed = 1;
nodes = (
"58 646 LINE",
"99 662 LINE",
"99 700 LINE",
"58 668 LINE"
);
}
);
width = 217;
}
);
unicode = 0031;
},
{
color = 1;
glyphname = two;
lastChange = "2016-10-15 09:40:22 +0000";
layers = (
{
layerId = "4F25946F-63AC-42D6-8D55-01CF6A99025B";
paths = (
{
closed = 1;
nodes = (
"522 0 LINE",
"522 188 LINE",
"275 188 LINE",
"506 447 LINE",
"523 475 OFFCURVE",
"534 500 OFFCURVE",
"534 534 CURVE SMOOTH",
"534 633 OFFCURVE",
"439 700 OFFCURVE",
"282 700 CURVE SMOOTH",
"123 700 OFFCURVE",
"22 631 OFFCURVE",
"22 519 CURVE",
"22 454 LINE",
"230 455 LINE",
"230 481 LINE",
"230 506 OFFCURVE",
"247 523 OFFCURVE",
"272 523 CURVE SMOOTH",
"300 523 OFFCURVE",
"312 502 OFFCURVE",
"312 489 CURVE SMOOTH",
"312 474 OFFCURVE",
"298 455 OFFCURVE",
"273 426 CURVE",
"25 171 LINE",
"25 0 LINE"
);
}
);
width = 553;
},
{
layerId = "262880E7-CFE1-4BDA-902E-E24798F3240A";
paths = (
{
closed = 1;
nodes = (
"393 0 LINE",
"393 22 LINE",
"90 22 LINE",
"330 364 LINE SMOOTH",
"368 419 OFFCURVE",
"392 470 OFFCURVE",
"392 530 CURVE SMOOTH",
"392 615 OFFCURVE",
"343 710 OFFCURVE",
"229 710 CURVE SMOOTH",
"124 710 OFFCURVE",
"61 635 OFFCURVE",
"61 500 CURVE",
"61 479 LINE",
"82 479 LINE",
"82 500 LINE SMOOTH",
"82 618 OFFCURVE",
"137 690 OFFCURVE",
"228 690 CURVE SMOOTH",
"316 690 OFFCURVE",
"371 622 OFFCURVE",
"371 530 CURVE SMOOTH",
"371 478 OFFCURVE",
"353 434 OFFCURVE",
"325 395 CURVE SMOOTH",
"62 21 LINE",
"61 0 LINE"
);
}
);
width = 455;
}
);
unicode = 0032;
},
{
color = 1;
glyphname = eight;
lastChange = "2016-10-15 09:40:23 +0000";
layers = (
{
layerId = "262880E7-CFE1-4BDA-902E-E24798F3240A";
paths = (
{
closed = 1;
nodes = (
"346 364 OFFCURVE",
"401 418 OFFCURVE",
"401 523 CURVE SMOOTH",
"401 548 LINE SMOOTH",
"401 653 OFFCURVE",
"346 707 OFFCURVE",
"241 707 CURVE SMOOTH",
"136 707 OFFCURVE",
"81 653 OFFCURVE",
"81 548 CURVE SMOOTH",
"81 523 LINE SMOOTH",
"81 418 OFFCURVE",
"136 364 OFFCURVE",
"241 364 CURVE SMOOTH"
);
},
{
closed = 1;
nodes = (
"150 384 OFFCURVE",
"103 431 OFFCURVE",
"103 523 CURVE SMOOTH",
"103 548 LINE SMOOTH",
"103 640 OFFCURVE",
"150 688 OFFCURVE",
"241 688 CURVE SMOOTH",
"332 688 OFFCURVE",
"379 640 OFFCURVE",
"379 548 CURVE SMOOTH",
"379 523 LINE SMOOTH",
"379 431 OFFCURVE",
"332 384 OFFCURVE",
"241 384 CURVE SMOOTH"
);
},
{
closed = 1;
nodes = (
"346 -18 OFFCURVE",
"401 36 OFFCURVE",
"401 141 CURVE SMOOTH",
"401 225 LINE SMOOTH",
"401 330 OFFCURVE",
"346 384 OFFCURVE",
"241 384 CURVE SMOOTH",
"136 384 OFFCURVE",
"81 330 OFFCURVE",
"81 225 CURVE SMOOTH",
"81 141 LINE SMOOTH",
"81 36 OFFCURVE",
"136 -18 OFFCURVE",
"241 -18 CURVE SMOOTH"
);
},
{
closed = 1;
nodes = (
"150 2 OFFCURVE",
"103 49 OFFCURVE",
"103 141 CURVE SMOOTH",
"103 225 LINE SMOOTH",
"103 317 OFFCURVE",
"150 365 OFFCURVE",
"241 365 CURVE SMOOTH",
"332 365 OFFCURVE",
"379 317 OFFCURVE",
"379 225 CURVE SMOOTH",
"379 141 LINE SMOOTH",
"379 49 OFFCURVE",
"332 2 OFFCURVE",
"241 2 CURVE SMOOTH"
);
}
);
width = 482;
},
{
layerId = "4F25946F-63AC-42D6-8D55-01CF6A99025B";
paths = (
{
closed = 1;
nodes = (
"319 337 OFFCURVE",
"510 323 OFFCURVE",
"510 498 CURVE",
"510 507 LINE",
"508 661 OFFCURVE",
"427 711 OFFCURVE",
"274 711 CURVE",
"120 711 OFFCURVE",
"40 670 OFFCURVE",
"40 516 CURVE",
"40 507 LINE",
"41 324 OFFCURVE",
"221 337 OFFCURVE",
"274 337 CURVE SMOOTH"
);
},
{
closed = 1;
nodes = (
"248 436 OFFCURVE",
"231 452 OFFCURVE",
"231 477 CURVE SMOOTH",
"231 539 LINE SMOOTH",
"231 564 OFFCURVE",
"248 580 OFFCURVE",
"274 580 CURVE SMOOTH",
"300 580 OFFCURVE",
"318 564 OFFCURVE",
"318 539 CURVE SMOOTH",
"318 477 LINE SMOOTH",
"318 452 OFFCURVE",
"300 436 OFFCURVE",
"274 436 CURVE SMOOTH"
);
},
{
closed = 1;
nodes = (
"449 -5 OFFCURVE",
"530 67 OFFCURVE",
"530 222 CURVE",
"530 231 LINE",
"530 324 OFFCURVE",
"439 455 OFFCURVE",
"275 401 CURVE",
"117 455 OFFCURVE",
"20 316 OFFCURVE",
"20 231 CURVE",
"20 222 LINE",
"21 59 OFFCURVE",
"107 -5 OFFCURVE",
"274 -5 CURVE SMOOTH"
);
},
{
closed = 1;
nodes = (
"248 136 OFFCURVE",
"231 152 OFFCURVE",
"231 177 CURVE SMOOTH",
"231 269 LINE SMOOTH",
"231 294 OFFCURVE",
"248 310 OFFCURVE",
"274 310 CURVE",
"300 310 OFFCURVE",
"318 294 OFFCURVE",
"318 269 CURVE SMOOTH",
"318 177 LINE SMOOTH",
"318 152 OFFCURVE",
"300 136 OFFCURVE",
"274 136 CURVE SMOOTH"
);
}
);
width = 550;
}
);
unicode = 0038;
},
{
color = 1;
glyphname = colon;
lastChange = "2016-10-15 09:40:24 +0000";
layers = (
{
layerId = "262880E7-CFE1-4BDA-902E-E24798F3240A";
paths = (
{
closed = 1;
nodes = (
"157 37 OFFCURVE",
"176 55 OFFCURVE",
"176 78 CURVE SMOOTH",
"176 100 OFFCURVE",
"157 118 OFFCURVE",
"135 118 CURVE SMOOTH",
"113 118 OFFCURVE",
"94 100 OFFCURVE",
"94 78 CURVE SMOOTH",
"94 55 OFFCURVE",
"112 37 OFFCURVE",
"135 37 CURVE SMOOTH"
);
},
{
closed = 1;
nodes = (
"157 350 OFFCURVE",
"176 368 OFFCURVE",
"176 391 CURVE SMOOTH",
"176 413 OFFCURVE",
"157 431 OFFCURVE",
"135 431 CURVE SMOOTH",
"113 431 OFFCURVE",
"94 413 OFFCURVE",
"94 391 CURVE SMOOTH",
"94 368 OFFCURVE",
"112 350 OFFCURVE",
"135 350 CURVE SMOOTH"
);
}
);
width = 270;
},
{
layerId = "4F25946F-63AC-42D6-8D55-01CF6A99025B";
paths = (
{
closed = 1;
nodes = (
"195 -6 OFFCURVE",
"244 40 OFFCURVE",
"244 99 CURVE",
"244 156 OFFCURVE",
"195 202 OFFCURVE",
"138 202 CURVE SMOOTH",
"81 202 OFFCURVE",
"32 156 OFFCURVE",
"32 99 CURVE SMOOTH",
"32 40 OFFCURVE",
"79 -6 OFFCURVE",
"138 -6 CURVE SMOOTH"
);
},
{
closed = 1;
nodes = (
"195 288 OFFCURVE",
"244 334 OFFCURVE",
"244 393 CURVE",
"244 450 OFFCURVE",
"195 496 OFFCURVE",
"138 496 CURVE SMOOTH",
"81 496 OFFCURVE",
"32 450 OFFCURVE",
"32 393 CURVE SMOOTH",
"32 334 OFFCURVE",
"79 288 OFFCURVE",
"138 288 CURVE SMOOTH"
);
}
);
width = 275;
}
);
unicode = 003A;
},
{
color = 1;
glyphname = comma;
lastChange = "2016-10-15 09:40:23 +0000";
layers = (
{
layerId = "262880E7-CFE1-4BDA-902E-E24798F3240A";
paths = (
{
closed = 1;
nodes = (
"159 153 LINE",
"133 153 LINE",
"93 -66 LINE",
"114 -66 LINE"
);
}
);
width = 248;
},
{
layerId = "4F25946F-63AC-42D6-8D55-01CF6A99025B";
paths = (
{
closed = 1;
nodes = (
"249 163 LINE",
"69 162 LINE",
"50 -66 LINE",
"198 -66 LINE"
);
}
);
width = 284;
}
);
unicode = 002C;
},
{
color = 1;
glyphname = exclam;
lastChange = "2016-10-15 09:40:23 +0000";
layers = (
{
components = (
{
name = period;
transform = "{1, 0, 0, 1, -94, 0}";
}
);
layerId = "262880E7-CFE1-4BDA-902E-E24798F3240A";
paths = (
{
closed = 1;
nodes = (
"63 220 LINE",
"63 700 LINE",
"41 700 LINE",
"41 220 LINE"
);
}
);
width = 102;
},
{
components = (
{
name = period;
transform = "{1, 0, 0, 1, 5, 0}";
}
);
layerId = "4F25946F-63AC-42D6-8D55-01CF6A99025B";
paths = (
{
closed = 1;
nodes = (
"235 250 LINE",
"255 700 LINE",
"47 700 LINE",
"67 250 LINE"
);
}
);
width = 301;
}
);
unicode = 0021;
},
{
color = 1;
glyphname = period;
lastChange = "2016-10-15 09:40:23 +0000";
layers = (
{
layerId = "262880E7-CFE1-4BDA-902E-E24798F3240A";
paths = (
{
closed = 1;
nodes = (
"167 5 OFFCURVE",
"186 23 OFFCURVE",
"186 46 CURVE SMOOTH",
"186 68 OFFCURVE",
"167 86 OFFCURVE",
"145 86 CURVE SMOOTH",
"123 86 OFFCURVE",
"104 68 OFFCURVE",
"104 46 CURVE SMOOTH",
"104 23 OFFCURVE",
"122 5 OFFCURVE",
"145 5 CURVE SMOOTH"
);
}
);
width = 290;
},
{
layerId = "4F25946F-63AC-42D6-8D55-01CF6A99025B";
paths = (
{
closed = 1;
nodes = (
"201 -6 OFFCURVE",
"250 40 OFFCURVE",
"250 99 CURVE",
"250 156 OFFCURVE",
"201 202 OFFCURVE",
"144 202 CURVE SMOOTH",
"87 202 OFFCURVE",
"38 156 OFFCURVE",
"38 99 CURVE SMOOTH",
"38 40 OFFCURVE",
"85 -6 OFFCURVE",
"144 -6 CURVE SMOOTH"
);
}
);
width = 288;
}
);
unicode = 002E;
},
{
color = 1;
glyphname = quotedbl;
lastChange = "2016-10-15 09:40:23 +0000";
layers = (
{
layerId = "262880E7-CFE1-4BDA-902E-E24798F3240A";
paths = (
{
closed = 1;
nodes = (
"254 501 LINE",
"254 693 LINE",
"232 693 LINE",
"232 501 LINE"
);
},
{
closed = 1;
nodes = (
"134 501 LINE",
"134 693 LINE",
"112 693 LINE",
"112 501 LINE"
);
}
);
width = 366;
},
{
layerId = "4F25946F-63AC-42D6-8D55-01CF6A99025B";
paths = (
{
closed = 1;
nodes = (
"551 481 LINE",
"551 693 LINE",
"349 693 LINE",
"349 481 LINE"
);
},
{
closed = 1;
nodes = (
"261 481 LINE",
"261 693 LINE",
"59 693 LINE",
"59 481 LINE"
);
}
);
width = 610;
}
);
unicode = 0022;
},
{
color = 1;
glyphname = quotesingle;
lastChange = "2016-10-15 09:40:22 +0000";
layers = (
{
layerId = "262880E7-CFE1-4BDA-902E-E24798F3240A";
paths = (
{
closed = 1;
nodes = (
"134 697 LINE",
"112 697 LINE",
"112 507 LINE",
"134 507 LINE"
);
}
);
width = 246;
},
{
layerId = "4F25946F-63AC-42D6-8D55-01CF6A99025B";
paths = (
{
closed = 1;
nodes = (
"238 699 LINE",
"54 699 LINE",
"64 452 LINE",
"228 452 LINE"
);
}
);
width = 292;
}
);
unicode = 0027;
},
{
color = 1;
glyphname = semicolon;
lastChange = "2016-10-15 09:40:23 +0000";
layers = (
{
layerId = "262880E7-CFE1-4BDA-902E-E24798F3240A";
paths = (
{
closed = 1;
nodes = (
"155 350 OFFCURVE",
"174 368 OFFCURVE",
"174 391 CURVE",
"174 413 OFFCURVE",
"155 431 OFFCURVE",
"133 431 CURVE SMOOTH",
"111 431 OFFCURVE",
"92 413 OFFCURVE",
"92 391 CURVE SMOOTH",
"92 368 OFFCURVE",
"110 350 OFFCURVE",
"133 350 CURVE SMOOTH"
);
},
{
closed = 1;
nodes = (
"149 207 LINE",
"127 207 LINE",
"92 0 LINE",
"113 0 LINE"
);
}
);
width = 256;
},
{
layerId = "4F25946F-63AC-42D6-8D55-01CF6A99025B";
paths = (
{
closed = 1;
nodes = (
"202 288 OFFCURVE",
"251 334 OFFCURVE",
"251 393 CURVE",
"251 450 OFFCURVE",
"202 496 OFFCURVE",
"145 496 CURVE SMOOTH",
"88 496 OFFCURVE",
"39 450 OFFCURVE",
"39 393 CURVE SMOOTH",
"39 334 OFFCURVE",
"86 288 OFFCURVE",
"145 288 CURVE SMOOTH"
);
},
{
closed = 1;
nodes = (
"186 -6 LINE",
"237 223 LINE",
"67 222 LINE",
"48 -6 LINE"
);
}
);
width = 282;
}
);
unicode = 003B;
},
{
color = 1;
glyphname = slash;
lastChange = "2016-10-15 09:40:22 +0000";
layers = (
{
layerId = "262880E7-CFE1-4BDA-902E-E24798F3240A";
paths = (
{
closed = 1;
nodes = (
"62 0 LINE",
"200 700 LINE",
"178 700 LINE",
"40 0 LINE"
);
}
);
width = 240;
},
{
layerId = "4F25946F-63AC-42D6-8D55-01CF6A99025B";
paths = (
{
closed = 1;
nodes = (
"198 0 LINE",
"336 700 LINE",
"134 700 LINE",
"-4 0 LINE"
);
}
);
width = 332;
}
);
unicode = 002F;
},
{
color = 1;
glyphname = quotesingle.alt;
lastChange = "2016-10-15 09:40:22 +0000";
layers = (
{
layerId = "262880E7-CFE1-4BDA-902E-E24798F3240A";
paths = (
{
closed = 1;
nodes = (
"134 699 LINE",
"112 699 LINE",
"112 507 LINE",
"134 507 LINE"
);
}
);
width = 246;
},
{
layerId = "4F25946F-63AC-42D6-8D55-01CF6A99025B";
paths = (
{
closed = 1;
nodes = (
"248 603 LINE",
"64 603 LINE",
"55 344 LINE",
"186 344 LINE"
);
}
);
width = 278;
}
);
},
{
color = 1;
glyphname = emdash;
lastChange = "2016-10-15 09:40:23 +0000";
layers = (
{
layerId = "262880E7-CFE1-4BDA-902E-E24798F3240A";
paths = (
{
closed = 1;
nodes = (
"488 251 LINE",
"488 272 LINE",
"80 272 LINE",
"80 251 LINE"
);
}
);
width = 568;
},
{
layerId = "4F25946F-63AC-42D6-8D55-01CF6A99025B";
paths = (
{
closed = 1;
nodes = (
"642 180 LINE",
"642 368 LINE",
"42 368 LINE",
"42 180 LINE"
);
}
);
width = 684;
}
);
unicode = 2014;
},
{
color = 1;
glyphname = hyphen;
lastChange = "2016-10-15 09:40:23 +0000";
layers = (
{
layerId = "4F25946F-63AC-42D6-8D55-01CF6A99025B";
paths = (
{
closed = 1;
nodes = (
"322 180 LINE",
"322 368 LINE",
"42 368 LINE",
"42 180 LINE"
);
}
);
width = 364;
},
{
layerId = "262880E7-CFE1-4BDA-902E-E24798F3240A";
paths = (
{
closed = 1;
nodes = (
"338 251 LINE",
"338 272 LINE",
"80 272 LINE",
"80 251 LINE"
);
}
);
width = 418;
}
);
unicode = 002D;
},
{
color = 1;
glyphname = dollar;
lastChange = "2016-10-15 09:40:23 +0000";
layers = (
{
layerId = "4F25946F-63AC-42D6-8D55-01CF6A99025B";
paths = (
{
closed = 1;
nodes = (
"448 -10 OFFCURVE",
"542 74 OFFCURVE",
"542 200 CURVE SMOOTH",
"542 312 OFFCURVE",
"468 381 OFFCURVE",
"355 425 CURVE SMOOTH",
"309 443 OFFCURVE",
"256 456 OFFCURVE",
"256 489 CURVE SMOOTH",
"256 503 OFFCURVE",
"266 518 OFFCURVE",
"290 518 CURVE SMOOTH",
"316 518 OFFCURVE",
"331 501 OFFCURVE",
"331 479 CURVE SMOOTH",
"331 464 LINE",
"543 474 LINE",
"543 479 LINE SMOOTH",
"543 617 OFFCURVE",
"436 710 OFFCURVE",
"284 710 CURVE SMOOTH",
"137 710 OFFCURVE",
"41 624 OFFCURVE",
"41 498 CURVE SMOOTH",
"41 389 OFFCURVE",
"114 318 OFFCURVE",
"228 275 CURVE SMOOTH",
"270 259 OFFCURVE",
"326 245 OFFCURVE",
"326 214 CURVE SMOOTH",
"326 201 OFFCURVE",
"317 182 OFFCURVE",
"291 182 CURVE SMOOTH",
"267 182 OFFCURVE",
"252 199 OFFCURVE",
"252 231 CURVE SMOOTH",
"252 236 LINE",
"29 226 LINE",
"29 221 LINE SMOOTH",
"29 83 OFFCURVE",
"135 -10 OFFCURVE",
"295 -10 CURVE SMOOTH"
);
},
{
closed = 1;
nodes = (
"366 -53 LINE",
"366 93 LINE",
"245 93 LINE",
"245 -53 LINE"
);
},
{
closed = 1;
nodes = (
"363 599 LINE",
"363 745 LINE",
"242 745 LINE",
"242 599 LINE"
);
}
);
width = 576;
},
{
layerId = "262880E7-CFE1-4BDA-902E-E24798F3240A";
paths = (
{
closed = 1;
nodes = (
"354 -9 OFFCURVE",
"418 50 OFFCURVE",
"418 149 CURVE SMOOTH",
"418 255 OFFCURVE",
"345 307 OFFCURVE",
"263 361 CURVE SMOOTH",
"182 414 OFFCURVE",
"118 459 OFFCURVE",
"118 552 CURVE SMOOTH",
"118 636 OFFCURVE",
"170 690 OFFCURVE",
"254 690 CURVE SMOOTH",
"338 690 OFFCURVE",
"390 637 OFFCURVE",
"390 550 CURVE SMOOTH",
"390 500 LINE",
"412 500 LINE",
"412 550 LINE SMOOTH",
"412 650 OFFCURVE",
"352 709 OFFCURVE",
"254 709 CURVE SMOOTH",
"156 709 OFFCURVE",
"96 649 OFFCURVE",
"96 553 CURVE SMOOTH",
"96 446 OFFCURVE",
"171 394 OFFCURVE",
"249 342 CURVE SMOOTH",
"326 291 OFFCURVE",
"396 244 OFFCURVE",
"396 148 CURVE SMOOTH",
"396 63 OFFCURVE",
"340 11 OFFCURVE",
"258 11 CURVE SMOOTH",
"170 11 OFFCURVE",
"124 64 OFFCURVE",
"124 150 CURVE SMOOTH",
"124 200 LINE",
"102 200 LINE",
"102 150 LINE SMOOTH",
"102 50 OFFCURVE",
"157 -9 OFFCURVE",
"259 -9 CURVE SMOOTH"
);
},
{
closed = 1;
nodes = (
"264 -88 LINE",
"264 2 LINE",
"241 2 LINE",
"241 -88 LINE"
);
},
{
closed = 1;
nodes = (
"264 702 LINE",
"264 792 LINE",
"241 792 LINE",
"241 702 LINE"
);
}
);
width = 514;
},
{
associatedMasterId = "4F25946F-63AC-42D6-8D55-01CF6A99025B";
layerId = "E869EA52-1DFA-43F8-82AD-AF9382669512";
name = "DemiBold{119,100}";
paths = (
{
closed = 1;
nodes = (
"387 -10 OFFCURVE",
"467 63 OFFCURVE",
"467 176 CURVE SMOOTH",
"467 286 OFFCURVE",
"394 347 OFFCURVE",
"295 395 CURVE SMOOTH",
"233 430 OFFCURVE",
"175 457 OFFCURVE",
"175 518 CURVE SMOOTH",
"175 565 OFFCURVE",
"204 598 OFFCURVE",
"256 598 CURVE SMOOTH",
"309 598 OFFCURVE",
"341 564 OFFCURVE",
"341 512 CURVE SMOOTH",
"341 481 LINE",
"465 486 LINE",
"465 512 LINE SMOOTH",
"465 632 OFFCURVE",
"380 710 OFFCURVE",
"253 710 CURVE SMOOTH",
"129 710 OFFCURVE",
"49 636 OFFCURVE",
"49 524 CURVE SMOOTH",
"49 415 OFFCURVE",
"123 353 OFFCURVE",
"221 306 CURVE SMOOTH",
"279 274 OFFCURVE",
"341 245 OFFCURVE",
"341 183 CURVE SMOOTH",
"341 137 OFFCURVE",
"311 103 OFFCURVE",
"259 103 CURVE SMOOTH",
"205 103 OFFCURVE",
"176 136 OFFCURVE",
"176 193 CURVE SMOOTH",
"176 219 LINE",
"46 214 LINE",
"46 188 LINE SMOOTH",
"46 68 OFFCURVE",
"128 -10 OFFCURVE",
"261 -10 CURVE SMOOTH"
);
},
{
closed = 1;
nodes = (
"306 -80 LINE",
"306 40 LINE",
"203 40 LINE",
"203 -80 LINE"
);
},
{
closed = 1;
nodes = (
"309 652 LINE",
"309 777 LINE",
"205 777 LINE",
"205 652 LINE"
);
}
);
width = 513;
}
);
unicode = 0024;
},
{
color = 1;
glyphname = at;
lastChange = "2016-10-15 09:40:22 +0000";
layers = (
{
layerId = "262880E7-CFE1-4BDA-902E-E24798F3240A";
paths = (
{
closed = 1;
nodes = (
"648 -68 OFFCURVE",
"810 92 OFFCURVE",
"810 290 CURVE SMOOTH",
"810 488 OFFCURVE",
"648 648 OFFCURVE",
"449 648 CURVE SMOOTH",
"250 648 OFFCURVE",
"88 488 OFFCURVE",
"88 290 CURVE SMOOTH",
"88 92 OFFCURVE",
"250 -68 OFFCURVE",
"449 -68 CURVE SMOOTH"
);
},
{
closed = 1;
nodes = (
"262 -50 OFFCURVE",
"110 102 OFFCURVE",
"110 290 CURVE SMOOTH",
"110 478 OFFCURVE",
"262 630 OFFCURVE",
"449 630 CURVE SMOOTH",
"636 630 OFFCURVE",
"788 478 OFFCURVE",
"788 290 CURVE SMOOTH",
"788 102 OFFCURVE",
"636 -50 OFFCURVE",
"449 -50 CURVE SMOOTH"
);
},
{
closed = 1;
nodes = (
"509.864 83.737 OFFCURVE",
"554.226 131.106 OFFCURVE",
"554.226 206.296 CURVE SMOOTH",
"554.226 347.654 LINE SMOOTH",
"554.226 422.844 OFFCURVE",
"509.864 470.213 OFFCURVE",
"437.681 470.213 CURVE SMOOTH",
"364.747 470.213 OFFCURVE",
"317.377 424.347 OFFCURVE",
"317.377 349.157 CURVE SMOOTH",
"317.377 204.793 LINE SMOOTH",
"317.377 129.603 OFFCURVE",
"364.747 83.737 OFFCURVE",
"437.681 83.737 CURVE SMOOTH"
);
},
{
closed = 1;
nodes = (
"373.018 100.279 OFFCURVE",
"333.919 140.129 OFFCURVE",
"333.919 204.793 CURVE SMOOTH",
"333.919 349.157 LINE SMOOTH",
"333.919 413.821 OFFCURVE",
"374.522 454.423 OFFCURVE",
"438.433 454.423 CURVE SMOOTH",
"502.345 454.423 OFFCURVE",
"542.947 413.821 OFFCURVE",
"542.947 349.157 CURVE SMOOTH",
"542.947 204.793 LINE SMOOTH",
"542.947 140.129 OFFCURVE",
"503.849 100.279 OFFCURVE",
"438.433 100.279 CURVE SMOOTH"
);
},
{
closed = 1;
nodes = (
"559.489 89 LINE",
"559.489 464.95 LINE",
"542.947 464.95 LINE",
"542.947 89 LINE"
);
}
);
width = 898;
},
{
layerId = "4F25946F-63AC-42D6-8D55-01CF6A99025B";
paths = (
{
closed = 1;
nodes = (
"584 -53 OFFCURVE",
"746 108 OFFCURVE",
"746 306 CURVE SMOOTH",
"746 504 OFFCURVE",
"584 665 OFFCURVE",
"386 665 CURVE SMOOTH",
"188 665 OFFCURVE",
"26 504 OFFCURVE",
"26 306 CURVE SMOOTH",
"26 108 OFFCURVE",
"188 -53 OFFCURVE",
"386 -53 CURVE SMOOTH"
);
},
{
closed = 1;
nodes = (
"251 69 OFFCURVE",
"151 170 OFFCURVE",
"151 306 CURVE SMOOTH",
"151 442 OFFCURVE",
"251 543 OFFCURVE",
"386 543 CURVE SMOOTH",
"521 543 OFFCURVE",
"621 442 OFFCURVE",
"621 306 CURVE SMOOTH",
"621 170 OFFCURVE",
"521 69 OFFCURVE",
"386 69 CURVE SMOOTH"
);
},
{
closed = 1;
nodes = (
"406.919 176.229 OFFCURVE",
"449.816 235.625 OFFCURVE",
"449.816 282.765 CURVE SMOOTH",
"449.816 290.308 LINE SMOOTH",
"449.816 295.493 OFFCURVE",
"442.274 419 OFFCURVE",
"350.351 419 CURVE",
"294.726 419 OFFCURVE",
"261.728 391.659 OFFCURVE",
"261.728 344.99 CURVE SMOOTH",
"261.728 255.424 LINE SMOOTH",
"261.728 212.998 OFFCURVE",
"286.712 176.229 OFFCURVE",
"343.28 176.229 CURVE SMOOTH"
);
},
{
closed = 1;
nodes = (
"367.793 257.781 OFFCURVE",
"359.779 265.323 OFFCURVE",
"359.779 277.108 CURVE SMOOTH",
"359.779 320.477 LINE SMOOTH",
"359.779 332.262 OFFCURVE",
"367.793 339.805 OFFCURVE",
"380.049 339.805 CURVE SMOOTH",
"392.306 339.805 OFFCURVE",
"400.791 332.262 OFFCURVE",
"400.791 320.477 CURVE SMOOTH",
"400.791 277.108 LINE SMOOTH",
"400.791 265.323 OFFCURVE",
"392.306 257.781 OFFCURVE",
"380.049 257.781 CURVE SMOOTH"
);
},
{
closed = 1;
nodes = (
"498.371 180 LINE",
"498.371 415.7 LINE",
"400.791 415.7 LINE",
"400.791 180 LINE"
);
}
);
width = 772;
}
);
unicode = 0040;
},
{
color = 1;
glyphname = copyright;
lastChange = "2016-10-15 09:40:22 +0000";
layers = (
{
layerId = "262880E7-CFE1-4BDA-902E-E24798F3240A";
paths = (
{
closed = 1;
nodes = (
"648 -68 OFFCURVE",
"810 92 OFFCURVE",
"810 290 CURVE SMOOTH",
"810 488 OFFCURVE",
"648 648 OFFCURVE",
"449 648 CURVE SMOOTH",
"250 648 OFFCURVE",
"88 488 OFFCURVE",
"88 290 CURVE SMOOTH",
"88 92 OFFCURVE",
"250 -68 OFFCURVE",
"449 -68 CURVE SMOOTH"
);
},
{
closed = 1;
nodes = (
"262 -50 OFFCURVE",
"110 102 OFFCURVE",
"110 290 CURVE SMOOTH",
"110 478 OFFCURVE",
"262 630 OFFCURVE",
"449 630 CURVE SMOOTH",
"636 630 OFFCURVE",
"788 478 OFFCURVE",
"788 290 CURVE SMOOTH",
"788 102 OFFCURVE",
"636 -50 OFFCURVE",
"449 -50 CURVE SMOOTH"
);
},
{
closed = 1;
nodes = (
"523.871 106.24 OFFCURVE",
"570.489 150.603 OFFCURVE",
"570.489 225.793 CURVE SMOOTH",
"570.489 228.048 LINE",
"553.947 228.048 LINE",
"553.947 225.793 LINE SMOOTH",
"553.947 161.129 OFFCURVE",
"514.849 121.279 OFFCURVE",
"449.433 121.279 CURVE SMOOTH",
"384.018 121.279 OFFCURVE",
"344.919 161.129 OFFCURVE",
"344.919 225.793 CURVE SMOOTH",
"344.919 370.157 LINE SMOOTH",
"344.919 435.573 OFFCURVE",
"385.522 475.423 OFFCURVE",
"449.433 475.423 CURVE SMOOTH",
"513.345 475.423 OFFCURVE",
"553.947 435.573 OFFCURVE",
"553.947 370.157 CURVE SMOOTH",
"553.947 368.654 LINE",
"570.489 368.654 LINE",
"570.489 370.157 LINE SMOOTH",
"570.489 445.347 OFFCURVE",
"523.871 489.71 OFFCURVE",
"449.433 489.71 CURVE SMOOTH",
"374.995 489.71 OFFCURVE",
"328.377 445.347 OFFCURVE",
"328.377 370.157 CURVE SMOOTH",
"328.377 225.793 LINE SMOOTH",
"328.377 150.603 OFFCURVE",
"374.995 106.24 OFFCURVE",
"449.433 106.24 CURVE SMOOTH"
);
}
);
width = 898;
},
{
layerId = "4F25946F-63AC-42D6-8D55-01CF6A99025B";
paths = (
{
closed = 1;
nodes = (
"584 -53 OFFCURVE",
"746 108 OFFCURVE",
"746 306 CURVE SMOOTH",
"746 504 OFFCURVE",
"584 665 OFFCURVE",
"386 665 CURVE SMOOTH",
"188 665 OFFCURVE",
"26 504 OFFCURVE",
"26 306 CURVE SMOOTH",
"26 108 OFFCURVE",
"188 -53 OFFCURVE",
"386 -53 CURVE SMOOTH"
);
},
{
closed = 1;
nodes = (
"251 69 OFFCURVE",
"151 170 OFFCURVE",
"151 306 CURVE SMOOTH",
"151 442 OFFCURVE",
"251 543 OFFCURVE",
"386 543 CURVE SMOOTH",
"521 543 OFFCURVE",
"621 442 OFFCURVE",
"621 306 CURVE SMOOTH",
"621 170 OFFCURVE",
"521 69 OFFCURVE",
"386 69 CURVE SMOOTH"
);
},
{
closed = 1;
nodes = (
"458 170 OFFCURVE",
"506 214 OFFCURVE",
"511 289.5 CURVE",
"511 290.5 LINE",
"405.5 290.5 LINE",
"405.5 277 LINE SMOOTH",
"405.5 264.5 OFFCURVE",
"396.5 256.5 OFFCURVE",
"383.5 256.5 CURVE SMOOTH",
"370.5 256.5 OFFCURVE",
"362 264.5 OFFCURVE",
"362 277 CURVE",
"362 323 LINE",
"362 335.5 OFFCURVE",
"370.5 343.5 OFFCURVE",
"383.5 343.5 CURVE SMOOTH",
"396.5 343.5 OFFCURVE",
"405.5 335.5 OFFCURVE",
"405.5 323 CURVE",
"405.5 312.5 LINE",
"511 312.5 LINE",
"511 313.5 LINE",
"510 385.5 OFFCURVE",
"462.5 428 OFFCURVE",
"383 428 CURVE SMOOTH",
"303 428 OFFCURVE",
"256 381.5 OFFCURVE",
"256 302 CURVE SMOOTH",
"256 297.5 LINE SMOOTH",
"256 217 OFFCURVE",
"303 170 OFFCURVE",
"382.5 170 CURVE SMOOTH"
);
}
);
width = 772;
}
);
unicode = 00A9;
},
{
color = 1;
glyphname = registered;
lastChange = "2016-10-15 09:40:23 +0000";
layers = (
{
layerId = "262880E7-CFE1-4BDA-902E-E24798F3240A";
paths = (
{
closed = 1;
nodes = (
"648 -68 OFFCURVE",
"810 92 OFFCURVE",
"810 290 CURVE SMOOTH",
"810 488 OFFCURVE",
"648 648 OFFCURVE",
"449 648 CURVE SMOOTH",
"250 648 OFFCURVE",
"88 488 OFFCURVE",
"88 290 CURVE SMOOTH",
"88 92 OFFCURVE",
"250 -68 OFFCURVE",
"449 -68 CURVE SMOOTH"
);
},
{
closed = 1;
nodes = (
"262 -50 OFFCURVE",
"110 102 OFFCURVE",
"110 290 CURVE SMOOTH",
"110 478 OFFCURVE",
"262 630 OFFCURVE",
"449 630 CURVE SMOOTH",
"636 630 OFFCURVE",
"788 478 OFFCURVE",
"788 290 CURVE SMOOTH",
"788 102 OFFCURVE",
"636 -50 OFFCURVE",
"449 -50 CURVE SMOOTH"
);
},
{
closed = 1;
nodes = (
"387.918 104 LINE",
"387.918 487.567 LINE",
"459.66 487.567 LINE SMOOTH",
"516.15 487.567 OFFCURVE",
"550.609 451.978 OFFCURVE",
"550.609 393.229 CURVE SMOOTH",
"550.609 334.479 OFFCURVE",
"516.15 298.326 OFFCURVE",
"459.66 298.326 CURVE SMOOTH",
"385.093 298.326 LINE",
"385.093 285.898 LINE",
"459.66 286.463 LINE SMOOTH",
"523.494 287.028 OFFCURVE",
"563.037 327.135 OFFCURVE",
"563.037 392.664 CURVE SMOOTH",
"563.037 458.757 OFFCURVE",
"523.494 499.43 OFFCURVE",
"459.66 499.43 CURVE SMOOTH",
"375.49 499.43 LINE",
"375.49 104 LINE"
);
},
{
closed = 1;
nodes = (
"537 104 LINE",
"472.088 296.066 LINE",
"460.79 291.547 LINE",
"524 104 LINE"
);
}
